<?xml version="1.0" encoding="utf-8"?>
<!-- Generator: Adobe Illustrator 23.0.1, SVG Export Plug-In . SVG Version: 6.00 Build 0)  -->
<svg version="1.1" id="Layer_1" xmlns="http://www.w3.org/2000/svg" xmlns:xlink="http://www.w3.org/1999/xlink" x="0px" y="0px"
	 viewBox="0 0 24 24" style="enable-background:new 0 0 24 24;" xml:space="preserve">
<style type="text/css">
	.st0{fill-rule:evenodd;clip-rule:evenodd;fill:#FFFFFF;}
</style>
<path id="path-1_1_" class="st0" d="M21.8,14.2c0.4,0.3,0.5,0.8,0.2,1.3l-2,3.4c-0.2,0.4-0.8,0.6-1.2,0.4l-2.2-0.9
	c-0.4,0.3-0.9,0.6-1.3,0.8L15,21.6c-0.1,0.5-0.5,0.9-1,0.9h-4c-0.5,0-0.9-0.4-1-0.8l-0.3-2.4c-0.5-0.2-0.9-0.5-1.3-0.8l-2.2,0.9
	c-0.5,0.2-1,0-1.2-0.4l-2-3.5c-0.2-0.4-0.1-1,0.3-1.3L4,12.8c0-0.3,0-0.5,0-0.8s0-0.5,0-0.8L2.2,9.8C1.8,9.5,1.7,8.9,1.9,8.5l2-3.4
	c0.2-0.4,0.8-0.6,1.2-0.4l2.2,0.9c0.4-0.3,0.9-0.6,1.3-0.8L9,2.4c0.1-0.5,0.5-0.9,1-0.9h4c0.5,0,0.9,0.4,1,0.8l0.3,2.4
	c0.5,0.2,0.9,0.5,1.3,0.8l2.2-0.9c0.5-0.2,1,0,1.2,0.4l2,3.5c0.2,0.4,0.1,1-0.3,1.3L20,11.2c0,0.3,0,0.5,0,0.8s0,0.5,0,0.8
	L21.8,14.2z M21.2,15C21.2,15,21.2,15,21.2,15l-2.3-1.8l0-0.3c0-0.4,0.1-0.6,0.1-0.9s0-0.6-0.1-0.9l0-0.3l0.2-0.2L21.2,9l-2-3.5
	l-2.7,1.1l-0.2-0.2c-0.5-0.4-1-0.7-1.6-0.9l-0.3-0.1l0-0.3L14,2.5h-4L9.6,5.4L9.3,5.5C8.8,5.8,8.3,6.1,7.7,6.4L7.5,6.6L7.3,6.5
	l-2.5-1L2.8,9l2.3,1.8l0,0.3C5,11.4,5,11.7,5,12s0,0.6,0.1,0.9l0,0.3l-0.2,0.2L2.8,15l2,3.5l2.7-1.1l0.2,0.2c0.5,0.4,1,0.7,1.6,0.9
	l0.3,0.1l0,0.3l0.4,2.6h4l0.4-2.9l0.3-0.1c0.5-0.2,1.1-0.5,1.6-0.9l0.2-0.2l0.3,0.1l2.5,1L21.2,15z M12,15c1.7,0,3-1.3,3-3
	s-1.3-3-3-3s-3,1.3-3,3S10.3,15,12,15z M12,16c-2.2,0-4-1.8-4-4s1.8-4,4-4s4,1.8,4,4S14.2,16,12,16z"/>
</svg>
