<?xml version="1.0" encoding="utf-8"?>
<!-- Generator: Adobe Illustrator 23.0.1, SVG Export Plug-In . SVG Version: 6.00 Build 0)  -->
<svg version="1.1" id="Layer_1" xmlns="http://www.w3.org/2000/svg" xmlns:xlink="http://www.w3.org/1999/xlink" x="0px" y="0px"
	 viewBox="0 0 24 24" style="enable-background:new 0 0 24 24;" xml:space="preserve">
<style type="text/css">
	.st0{fill:#FFFFFF;}
	.st1{fill-rule:evenodd;clip-rule:evenodd;fill:#FFFFFF;}
</style>
<path class="st0" d="M22.8,4.7H11.2v-2c0-0.7-0.5-1.2-1.2-1.2H1.2C0.5,1.5,0,2,0,2.7v5.5V9v12.3c0,0.7,0.5,1.2,1.2,1.2h21.6
	c0.7,0,1.2-0.5,1.2-1.2V9V8.2V5.9C24,5.2,23.5,4.7,22.8,4.7z M23.2,21.3c0,0.2-0.2,0.4-0.4,0.4H1.2c-0.2,0-0.4-0.2-0.4-0.4V9h22.4
	V21.3z M0.8,8.2V2.7c0-0.2,0.2-0.4,0.4-0.4H10c0.2,0,0.4,0.2,0.4,0.4v2.8h12.4c0.2,0,0.4,0.2,0.4,0.4v2.4H0.8z"/>
<path id="path-1_1_" class="st1" d="M22.8,4.7H11.2v-2c0-0.7-0.5-1.2-1.2-1.2H1.2C0.5,1.5,0,2,0,2.7v5.5V9v12.3
	c0,0.7,0.5,1.2,1.2,1.2h21.6c0.7,0,1.2-0.5,1.2-1.2V9V8.2V5.9C24,5.2,23.5,4.7,22.8,4.7z M23.2,21.3c0,0.2-0.2,0.4-0.4,0.4H1.2
	c-0.2,0-0.4-0.2-0.4-0.4V9h22.4V21.3z M0.8,8.2V2.7c0-0.2,0.2-0.4,0.4-0.4H10c0.2,0,0.4,0.2,0.4,0.4v2.8h12.4c0.2,0,0.4,0.2,0.4,0.4
	v2.4H0.8z"/>
</svg>
