<?xml version="1.0" encoding="utf-8"?>
<!-- Generator: Adobe Illustrator 23.0.1, SVG Export Plug-In . SVG Version: 6.00 Build 0)  -->
<svg version="1.1" id="Layer_1" xmlns="http://www.w3.org/2000/svg" xmlns:xlink="http://www.w3.org/1999/xlink" x="0px" y="0px"
	 viewBox="0 0 24 24" style="enable-background:new 0 0 24 24;" xml:space="preserve">
<style type="text/css">
	.st0{fill-rule:evenodd;clip-rule:evenodd;fill:#FFFFFF;}
</style>
<path id="path-1_1_" class="st0" d="M22.8,13.4c0.1,0.2,0.2,0.5,0.2,0.8v3.7c0,1-0.8,1.8-1.8,1.8H2.8c-1,0-1.8-0.8-1.8-1.8v-3.7
	c0-0.3,0.1-0.6,0.2-0.8l0,0l4-8.8c0.4-0.8,1.2-1.4,2.1-1.4h9.5c0.9,0,1.7,0.5,2.1,1.4L22.8,13.4L22.8,13.4z M6,5l-3.3,7.5
	c0.1,0,0.1,0,0.2,0h18.3c0.1,0,0.1,0,0.2,0L18,5c-0.2-0.5-0.7-0.8-1.3-0.8H7.2C6.7,4.2,6.2,4.5,6,5z M22.1,17.9v-3.7
	c0-0.5-0.4-0.9-0.9-0.9H2.8c-0.5,0-0.9,0.4-0.9,0.9v3.7c0,0.5,0.4,0.9,0.9,0.9h18.3C21.7,18.8,22.1,18.4,22.1,17.9z M19.3,17
	c-0.5,0-0.9-0.4-0.9-0.9c0-0.5,0.4-0.9,0.9-0.9c0.5,0,0.9,0.4,0.9,0.9C20.2,16.6,19.8,17,19.3,17z"/>
</svg>
