<?xml version="1.0" encoding="utf-8"?>
<!-- Generator: Adobe Illustrator 23.0.1, SVG Export Plug-In . SVG Version: 6.00 Build 0)  -->
<svg version="1.1" id="Layer_1" xmlns="http://www.w3.org/2000/svg" xmlns:xlink="http://www.w3.org/1999/xlink" x="0px" y="0px"
	 viewBox="0 0 24 24" style="enable-background:new 0 0 24 24;" xml:space="preserve">
<style type="text/css">
	.st0{fill:#FFFFFF;
	opacity: 0.5;}
</style>
<polygon class="st0" points="5.3,12.6 2,12.6 2,22.1 11.5,22.1 11.5,18.8 5.3,18.8 "/>
<path class="st0" d="M11.5,5.4V2C6.4,2.3,2.3,6.4,2,11.5h3.3C5.6,8.2,8.2,5.6,11.5,5.4z"/>
<path class="st0" d="M14.4,9.6c-1.3-1.3-3.5-1.3-4.8,0c-1.3,1.3-1.3,3.5,0,4.9c1.3,1.3,3.5,1.3,4.8,0C15.8,13.1,15.8,11,14.4,9.6z"
	/>
<path class="st0" d="M12.5,18.7v3.4c5.1-0.3,9.2-4.4,9.5-9.5h-3.3C18.4,15.9,15.8,18.5,12.5,18.7z"/>
<polygon class="st0" points="12.5,2 12.5,5.3 18.7,5.3 18.7,11.5 22,11.5 22,2 "/>
</svg>
