<?xml version="1.0" encoding="UTF-8"?>
<svg width="238px" height="49px" viewBox="0 0 238 49" version="1.1" xmlns="http://www.w3.org/2000/svg" xmlns:xlink="http://www.w3.org/1999/xlink">
    <!-- Generator: Sketch 52.3 (67297) - http://www.bohemiancoding.com/sketch -->
    <title>Logos/White</title>
    <desc>Created with Sketch.</desc>
    <g id="Logos/White" stroke="none" stroke-width="1" fill="none" fill-rule="evenodd">
        <g id="svgexport-0" fill="#FFFFFF">
            <path d="M117.753,40.024 C117.372,39.78 116.885,39.657 116.288,39.657 C116.047,39.657 115.811,39.678 115.577,39.721 C115.344,39.763 115.137,39.833 114.956,39.933 C114.775,40.035 114.63,40.167 114.521,40.333 C114.413,40.499 114.358,40.707 114.358,40.955 C114.358,41.188 114.436,41.38 114.593,41.524 C114.749,41.67 114.959,41.789 115.219,41.88 C115.481,41.973 115.776,42.048 116.106,42.109 C116.436,42.171 116.772,42.236 117.113,42.307 C117.455,42.378 117.791,42.459 118.119,42.557 C118.45,42.654 118.745,42.784 119.006,42.946 C119.269,43.11 119.477,43.316 119.636,43.564 C119.791,43.812 119.87,44.126 119.87,44.502 C119.87,44.905 119.768,45.251 119.562,45.539 C119.357,45.827 119.094,46.061 118.771,46.241 C118.45,46.423 118.089,46.554 117.693,46.637 C117.294,46.717 116.899,46.758 116.505,46.758 C116.022,46.758 115.566,46.705 115.135,46.601 C114.705,46.494 114.327,46.33 114.001,46.115 C113.676,45.899 113.418,45.621 113.228,45.283 C113.041,44.948 112.946,44.548 112.946,44.085 L114.031,44.085 C114.031,44.405 114.102,44.681 114.243,44.911 C114.383,45.142 114.569,45.333 114.797,45.481 C115.026,45.628 115.294,45.74 115.6,45.811 C115.905,45.881 116.22,45.916 116.54,45.916 C116.797,45.916 117.055,45.895 117.317,45.853 C117.579,45.81 117.814,45.737 118.023,45.634 C118.233,45.531 118.4,45.391 118.531,45.212 C118.659,45.035 118.722,44.809 118.722,44.533 C118.722,44.27 118.645,44.056 118.488,43.893 C118.331,43.729 118.121,43.597 117.861,43.495 C117.601,43.391 117.304,43.307 116.974,43.244 C116.645,43.18 116.31,43.114 115.967,43.045 C115.625,42.981 115.29,42.9 114.96,42.813 C114.63,42.724 114.335,42.607 114.073,42.459 C113.811,42.313 113.603,42.127 113.446,41.897 C113.289,41.667 113.211,41.377 113.211,41.03 C113.211,40.644 113.298,40.315 113.475,40.034 C113.653,39.755 113.888,39.521 114.182,39.341 C114.475,39.161 114.809,39.026 115.184,38.937 C115.557,38.849 115.941,38.804 116.335,38.804 C116.776,38.804 117.189,38.85 117.565,38.943 C117.942,39.034 118.272,39.18 118.558,39.38 C118.846,39.579 119.069,39.829 119.236,40.13 C119.398,40.433 119.49,40.791 119.506,41.211 L118.419,41.211 C118.36,40.665 118.136,40.27 117.753,40.024" id="Path"></path>
            <path d="M125.915,46.237 C125.448,46.55 124.862,46.706 124.154,46.706 C123.654,46.706 123.224,46.636 122.857,46.494 C122.49,46.35 122.182,46.152 121.933,45.896 C121.684,45.639 121.497,45.335 121.373,44.981 C121.248,44.626 121.179,44.239 121.162,43.82 C121.162,43.402 121.233,43.018 121.38,42.672 C121.524,42.322 121.726,42.021 121.988,41.766 C122.249,41.512 122.557,41.312 122.917,41.17 C123.273,41.027 123.668,40.956 124.093,40.956 C124.648,40.956 125.109,41.059 125.474,41.259 C125.839,41.462 126.134,41.719 126.356,42.031 C126.577,42.344 126.73,42.686 126.814,43.052 C126.897,43.422 126.932,43.775 126.917,44.107 L122.248,44.107 C122.24,44.349 122.271,44.578 122.346,44.795 C122.417,45.011 122.534,45.202 122.694,45.37 C122.856,45.537 123.061,45.669 123.31,45.769 C123.561,45.868 123.852,45.916 124.191,45.916 C124.624,45.916 124.981,45.829 125.258,45.651 C125.535,45.473 125.718,45.202 125.806,44.84 L126.82,44.84 C126.683,45.46 126.382,45.924 125.915,46.237 M125.669,42.703 C125.576,42.51 125.45,42.345 125.295,42.207 C125.138,42.069 124.952,41.958 124.739,41.877 C124.525,41.798 124.29,41.755 124.033,41.755 C123.767,41.755 123.528,41.798 123.316,41.877 C123.104,41.958 122.919,42.07 122.766,42.212 C122.615,42.355 122.494,42.521 122.405,42.708 C122.316,42.896 122.265,43.097 122.248,43.309 L125.832,43.309 C125.814,43.097 125.759,42.894 125.669,42.703" id="Shape" fill-rule="nonzero"></path>
            <path d="M133.285,46.237 C132.82,46.55 132.232,46.706 131.524,46.706 C131.026,46.706 130.593,46.636 130.227,46.494 C129.862,46.35 129.553,46.152 129.304,45.896 C129.057,45.639 128.868,45.335 128.743,44.981 C128.618,44.626 128.55,44.239 128.532,43.82 C128.532,43.402 128.604,43.018 128.75,42.672 C128.894,42.322 129.097,42.021 129.359,41.766 C129.621,41.512 129.929,41.312 130.288,41.17 C130.645,41.027 131.037,40.956 131.463,40.956 C132.018,40.956 132.479,41.059 132.846,41.259 C133.21,41.462 133.505,41.719 133.726,42.031 C133.946,42.344 134.1,42.686 134.185,43.052 C134.268,43.422 134.302,43.775 134.286,44.107 L129.618,44.107 C129.61,44.349 129.642,44.578 129.715,44.795 C129.787,45.011 129.903,45.202 130.065,45.37 C130.227,45.537 130.43,45.669 130.682,45.769 C130.93,45.868 131.224,45.916 131.56,45.916 C131.996,45.916 132.351,45.829 132.628,45.651 C132.906,45.473 133.088,45.202 133.177,44.84 L134.19,44.84 C134.053,45.46 133.752,45.924 133.285,46.237 M133.039,42.703 C132.945,42.51 132.821,42.345 132.664,42.207 C132.507,42.069 132.322,41.958 132.11,41.877 C131.896,41.798 131.66,41.755 131.404,41.755 C131.138,41.755 130.898,41.798 130.685,41.877 C130.472,41.958 130.289,42.07 130.137,42.212 C129.984,42.355 129.864,42.521 129.775,42.708 C129.686,42.896 129.635,43.097 129.618,43.309 L133.202,43.309 C133.185,43.097 133.131,42.894 133.039,42.703" id="Shape" fill-rule="nonzero"></path>
            <path d="M143.152,41.084 L143.152,41.882 L141.91,41.882 L141.91,45.302 C141.91,45.407 141.921,45.492 141.94,45.558 C141.96,45.621 141.999,45.669 142.055,45.705 C142.11,45.74 142.189,45.766 142.288,45.774 C142.389,45.784 142.521,45.79 142.681,45.79 L143.152,45.79 L143.152,46.589 L142.368,46.589 C142.101,46.589 141.875,46.573 141.687,46.54 C141.498,46.508 141.345,46.45 141.227,46.366 C141.112,46.28 141.023,46.159 140.97,46.003 C140.913,45.849 140.884,45.64 140.884,45.385 L140.884,41.882 L139.821,41.882 L139.821,41.084 L140.884,41.084 L140.884,39.436 L141.909,39.436 L141.909,41.084 L143.152,41.084 Z" id="Path"></path>
            <path d="M146.203,38.986 L146.203,41.893 L146.228,41.893 C146.308,41.723 146.421,41.578 146.566,41.461 C146.711,41.344 146.875,41.249 147.055,41.175 C147.235,41.101 147.425,41.044 147.622,41.009 C147.817,40.972 148.009,40.955 148.194,40.955 C148.604,40.955 148.945,41.004 149.219,41.104 C149.49,41.204 149.713,41.342 149.883,41.519 C150.051,41.695 150.17,41.909 150.237,42.153 C150.306,42.399 150.341,42.671 150.341,42.968 L150.341,46.587 L149.314,46.587 L149.314,42.86 C149.314,42.519 149.201,42.25 148.978,42.05 C148.75,41.851 148.441,41.752 148.049,41.752 C147.736,41.752 147.464,41.795 147.234,41.879 C147.005,41.965 146.813,42.087 146.66,42.24 C146.509,42.399 146.394,42.581 146.318,42.79 C146.241,43 146.202,43.228 146.202,43.477 L146.202,46.586 L145.179,46.586 L145.179,38.983 L146.203,38.983 L146.203,38.986 Z" id="Path"></path>
            <path d="M157.195,46.237 C156.727,46.55 156.138,46.706 155.432,46.706 C154.934,46.706 154.501,46.636 154.133,46.494 C153.769,46.35 153.461,46.152 153.211,45.896 C152.963,45.639 152.776,45.335 152.649,44.981 C152.526,44.626 152.455,44.239 152.438,43.82 C152.438,43.402 152.511,43.018 152.656,42.672 C152.802,42.322 153.005,42.021 153.265,41.766 C153.526,41.512 153.837,41.312 154.194,41.17 C154.552,41.027 154.946,40.956 155.372,40.956 C155.926,40.956 156.387,41.059 156.754,41.259 C157.116,41.462 157.412,41.719 157.633,42.031 C157.853,42.344 158.007,42.686 158.092,43.052 C158.176,43.422 158.21,43.775 158.194,44.107 L153.526,44.107 C153.519,44.349 153.548,44.578 153.623,44.795 C153.694,45.011 153.811,45.202 153.973,45.37 C154.134,45.537 154.338,45.669 154.587,45.769 C154.837,45.868 155.131,45.916 155.468,45.916 C155.902,45.916 156.26,45.829 156.537,45.651 C156.813,45.473 156.998,45.202 157.084,44.84 L158.098,44.84 C157.959,45.46 157.66,45.924 157.195,46.237 M156.944,42.703 C156.853,42.51 156.729,42.345 156.572,42.207 C156.415,42.069 156.23,41.958 156.016,41.877 C155.804,41.798 155.57,41.755 155.309,41.755 C155.045,41.755 154.807,41.798 154.593,41.877 C154.38,41.958 154.195,42.07 154.043,42.212 C153.892,42.355 153.771,42.521 153.682,42.708 C153.595,42.896 153.541,43.097 153.526,43.309 L157.108,43.309 C157.093,43.097 157.038,42.894 156.944,42.703" id="Shape" fill-rule="nonzero"></path>
            <path d="M165.457,38.986 L165.457,41.83 L165.479,41.83 C165.649,41.524 165.915,41.303 166.276,41.163 C166.636,41.026 167.036,40.956 167.469,40.956 C167.952,40.956 168.37,41.036 168.729,41.189 C169.087,41.348 169.386,41.557 169.624,41.824 C169.862,42.091 170.041,42.397 170.16,42.743 C170.281,43.092 170.342,43.463 170.342,43.853 C170.342,44.243 170.283,44.61 170.165,44.959 C170.05,45.308 169.872,45.611 169.638,45.868 C169.4,46.128 169.102,46.334 168.743,46.483 C168.386,46.63 167.969,46.705 167.494,46.705 C167.341,46.705 167.171,46.69 166.981,46.663 C166.793,46.635 166.605,46.588 166.422,46.523 C166.236,46.46 166.061,46.373 165.895,46.264 C165.728,46.153 165.591,46.016 165.479,45.853 L165.457,45.853 L165.457,46.587 L164.43,46.587 L164.43,38.984 L165.457,38.984 L165.457,38.986 Z M169.142,43.037 C169.066,42.793 168.948,42.576 168.79,42.383 C168.634,42.193 168.433,42.038 168.188,41.925 C167.941,41.812 167.654,41.755 167.326,41.755 C166.981,41.755 166.687,41.816 166.445,41.937 C166.203,42.058 166.005,42.215 165.853,42.41 C165.702,42.605 165.589,42.828 165.522,43.075 C165.454,43.326 165.418,43.575 165.418,43.832 C165.418,44.101 165.456,44.364 165.527,44.614 C165.599,44.865 165.715,45.09 165.87,45.279 C166.027,45.471 166.232,45.626 166.48,45.743 C166.729,45.861 167.03,45.918 167.384,45.918 C167.739,45.918 168.034,45.86 168.272,45.738 C168.509,45.617 168.699,45.457 168.844,45.26 C168.989,45.061 169.093,44.832 169.158,44.576 C169.221,44.32 169.255,44.058 169.255,43.788 C169.257,43.533 169.218,43.282 169.142,43.037 Z" id="Shape" fill-rule="nonzero"></path>
            <path d="M172.501,38.986 L173.526,38.986 L173.526,40.093 L172.501,40.093 L172.501,38.986 Z M173.526,46.589 L172.501,46.589 L172.501,41.084 L173.526,41.084 L173.526,46.589 Z" id="Shape" fill-rule="nonzero"></path>
            <path d="M180.693,48.142 C180.224,48.591 179.493,48.815 178.495,48.815 C178.205,48.815 177.909,48.786 177.607,48.728 C177.306,48.674 177.033,48.581 176.789,48.453 C176.544,48.325 176.342,48.158 176.18,47.953 C176.018,47.746 175.931,47.497 175.915,47.196 L176.939,47.196 C176.948,47.359 177.004,47.498 177.114,47.612 C177.222,47.723 177.354,47.818 177.512,47.888 C177.667,47.96 177.838,48.01 178.026,48.042 C178.209,48.073 178.384,48.092 178.555,48.092 C178.893,48.092 179.178,48.039 179.412,47.937 C179.644,47.833 179.838,47.691 179.989,47.51 C180.141,47.33 180.254,47.111 180.323,46.857 C180.388,46.601 180.424,46.32 180.424,46.014 L180.424,45.653 L180.402,45.653 C180.224,45.994 179.958,46.243 179.598,46.403 C179.242,46.563 178.861,46.643 178.458,46.643 C177.992,46.643 177.586,46.569 177.241,46.418 C176.892,46.268 176.604,46.067 176.372,45.816 C176.138,45.566 175.963,45.27 175.846,44.933 C175.731,44.595 175.671,44.239 175.671,43.863 C175.671,43.536 175.72,43.2 175.816,42.857 C175.915,42.513 176.075,42.201 176.298,41.919 C176.526,41.64 176.823,41.408 177.19,41.226 C177.563,41.046 178.017,40.955 178.555,40.955 C178.949,40.955 179.313,41.031 179.641,41.184 C179.971,41.338 180.226,41.567 180.413,41.872 L180.424,41.872 L180.424,41.084 L181.389,41.084 L181.389,46.121 C181.39,47.022 181.158,47.696 180.693,48.142 M179.384,45.668 C179.622,45.545 179.812,45.38 179.954,45.177 C180.1,44.976 180.207,44.746 180.276,44.492 C180.341,44.236 180.377,43.98 180.377,43.724 C180.377,43.482 180.346,43.245 180.28,43.009 C180.216,42.776 180.115,42.564 179.973,42.377 C179.832,42.189 179.649,42.037 179.422,41.924 C179.2,41.811 178.926,41.754 178.605,41.754 C178.274,41.754 177.993,41.81 177.759,41.919 C177.527,42.029 177.335,42.177 177.185,42.362 C177.036,42.545 176.928,42.758 176.86,42.999 C176.792,43.242 176.757,43.492 176.757,43.756 C176.757,44.005 176.786,44.252 176.842,44.502 C176.899,44.749 176.996,44.975 177.133,45.176 C177.27,45.379 177.448,45.544 177.674,45.667 C177.899,45.792 178.181,45.854 178.518,45.854 C178.859,45.854 179.146,45.793 179.384,45.668" id="Shape" fill-rule="nonzero"></path>
            <path d="M189.135,41.084 L189.135,41.83 L189.159,41.83 C189.328,41.524 189.596,41.303 189.955,41.163 C190.318,41.026 190.714,40.956 191.149,40.956 C191.631,40.956 192.05,41.036 192.409,41.189 C192.769,41.348 193.067,41.557 193.304,41.824 C193.541,42.091 193.721,42.397 193.841,42.743 C193.961,43.092 194.02,43.463 194.02,43.853 C194.02,44.243 193.963,44.61 193.846,44.959 C193.73,45.308 193.552,45.611 193.316,45.868 C193.078,46.128 192.782,46.334 192.423,46.483 C192.066,46.63 191.65,46.705 191.174,46.705 C191.022,46.705 190.851,46.69 190.661,46.663 C190.473,46.635 190.283,46.588 190.1,46.523 C189.913,46.46 189.74,46.373 189.576,46.264 C189.409,46.153 189.271,46.016 189.159,45.853 L189.135,45.853 L189.135,48.688 L188.111,48.688 L188.111,41.083 L189.135,41.083 L189.135,41.084 Z M192.821,43.037 C192.743,42.793 192.628,42.576 192.47,42.383 C192.314,42.193 192.113,42.038 191.866,41.925 C191.619,41.812 191.334,41.755 191.001,41.755 C190.66,41.755 190.364,41.816 190.124,41.937 C189.883,42.058 189.685,42.215 189.533,42.41 C189.378,42.605 189.269,42.828 189.201,43.075 C189.133,43.326 189.097,43.575 189.097,43.832 C189.097,44.101 189.133,44.364 189.206,44.614 C189.279,44.865 189.394,45.09 189.548,45.279 C189.706,45.471 189.908,45.626 190.16,45.743 C190.408,45.861 190.708,45.918 191.063,45.918 C191.417,45.918 191.713,45.86 191.951,45.738 C192.186,45.617 192.38,45.457 192.523,45.26 C192.669,45.061 192.773,44.832 192.836,44.576 C192.901,44.32 192.932,44.058 192.932,43.788 C192.935,43.533 192.895,43.282 192.821,43.037 Z" id="Shape" fill-rule="nonzero"></path>
            <path d="M196.182,38.986 L197.205,38.986 L197.205,40.093 L196.182,40.093 L196.182,38.986 Z M197.205,46.589 L196.182,46.589 L196.182,41.084 L197.205,41.084 L197.205,46.589 Z" id="Shape" fill-rule="nonzero"></path>
            <path d="M203.418,42.043 C203.159,41.85 202.813,41.755 202.38,41.755 C202.01,41.755 201.701,41.816 201.452,41.937 C201.203,42.058 201.002,42.216 200.853,42.416 C200.704,42.616 200.597,42.844 200.533,43.104 C200.47,43.364 200.437,43.63 200.437,43.908 C200.437,44.163 200.471,44.412 200.539,44.653 C200.606,44.893 200.714,45.108 200.86,45.298 C201.004,45.485 201.192,45.635 201.425,45.75 C201.658,45.865 201.937,45.919 202.259,45.919 C202.764,45.919 203.162,45.805 203.447,45.568 C203.732,45.335 203.907,45.005 203.97,44.578 L205.019,44.578 C204.907,45.262 204.623,45.785 204.159,46.154 C203.696,46.523 203.066,46.708 202.271,46.708 C201.796,46.708 201.377,46.642 201.01,46.505 C200.645,46.37 200.339,46.18 200.093,45.931 C199.85,45.684 199.664,45.386 199.537,45.04 C199.413,44.697 199.351,44.32 199.351,43.908 C199.351,43.497 199.412,43.112 199.531,42.752 C199.651,42.395 199.836,42.082 200.08,41.814 C200.326,41.548 200.634,41.34 201.003,41.186 C201.373,41.034 201.803,40.957 202.294,40.957 C202.648,40.957 202.979,40.995 203.29,41.07 C203.599,41.144 203.871,41.258 204.109,41.414 C204.346,41.57 204.542,41.768 204.693,42.007 C204.846,42.244 204.945,42.527 204.984,42.853 L203.923,42.853 C203.844,42.504 203.674,42.234 203.418,42.043" id="Path"></path>
            <path d="M209.724,41.084 L209.724,41.882 L208.484,41.882 L208.484,45.302 C208.484,45.407 208.495,45.492 208.514,45.558 C208.534,45.621 208.57,45.669 208.628,45.705 C208.683,45.74 208.763,45.766 208.861,45.774 C208.963,45.784 209.093,45.79 209.255,45.79 L209.724,45.79 L209.724,46.589 L208.944,46.589 C208.674,46.589 208.449,46.573 208.261,46.54 C208.071,46.508 207.918,46.45 207.802,46.366 C207.687,46.28 207.6,46.159 207.541,46.003 C207.485,45.849 207.459,45.64 207.459,45.385 L207.459,41.882 L206.396,41.882 L206.396,41.084 L207.459,41.084 L207.459,39.436 L208.483,39.436 L208.483,41.084 L209.724,41.084 Z" id="Path"></path>
            <path d="M215.949,46.589 L215.949,45.718 L215.927,45.718 C215.707,46.058 215.43,46.308 215.095,46.467 C214.755,46.627 214.359,46.706 213.901,46.706 C213.489,46.706 213.147,46.658 212.877,46.562 C212.6,46.466 212.38,46.331 212.213,46.152 C212.04,45.975 211.924,45.765 211.856,45.519 C211.788,45.273 211.752,45.002 211.752,44.704 L211.752,41.084 L212.778,41.084 L212.778,44.811 C212.778,45.153 212.889,45.421 213.116,45.621 C213.341,45.819 213.649,45.918 214.045,45.918 C214.359,45.918 214.63,45.877 214.86,45.791 C215.089,45.706 215.279,45.585 215.43,45.429 C215.582,45.275 215.699,45.09 215.775,44.881 C215.851,44.672 215.889,44.443 215.889,44.193 L215.889,41.085 L216.915,41.085 L216.915,46.59 L215.949,46.59 L215.949,46.589 Z" id="Path"></path>
            <path d="M220.281,41.084 L220.281,42.243 L220.304,42.243 C220.553,41.798 220.86,41.468 221.22,41.253 C221.581,41.042 222.041,40.941 222.595,40.956 L222.595,41.915 C222.185,41.915 221.835,41.963 221.545,42.063 C221.255,42.163 221.024,42.308 220.847,42.5 C220.67,42.692 220.539,42.926 220.462,43.198 C220.379,43.472 220.339,43.784 220.339,44.139 L220.339,46.588 L219.315,46.588 L219.315,41.083 L220.281,41.083 L220.281,41.084 Z" id="Path"></path>
            <path d="M228.46,46.237 C227.993,46.55 227.406,46.706 226.699,46.706 C226.199,46.706 225.765,46.636 225.4,46.494 C225.035,46.35 224.727,46.152 224.478,45.896 C224.228,45.639 224.042,45.335 223.917,44.981 C223.791,44.626 223.721,44.239 223.707,43.82 C223.707,43.402 223.777,43.018 223.922,42.672 C224.066,42.322 224.271,42.021 224.53,41.766 C224.792,41.512 225.102,41.312 225.46,41.17 C225.818,41.027 226.211,40.956 226.636,40.956 C227.193,40.956 227.652,41.059 228.018,41.259 C228.382,41.462 228.676,41.719 228.899,42.031 C229.12,42.344 229.272,42.686 229.357,43.052 C229.442,43.422 229.475,43.775 229.46,44.107 L224.793,44.107 C224.785,44.349 224.814,44.578 224.89,44.795 C224.959,45.011 225.079,45.202 225.24,45.37 C225.399,45.537 225.605,45.669 225.854,45.769 C226.104,45.868 226.397,45.916 226.732,45.916 C227.17,45.916 227.523,45.829 227.801,45.651 C228.079,45.473 228.262,45.202 228.351,44.84 L229.364,44.84 C229.227,45.46 228.927,45.924 228.46,46.237 M228.213,42.703 C228.119,42.51 227.995,42.345 227.837,42.207 C227.68,42.069 227.497,41.958 227.282,41.877 C227.069,41.798 226.836,41.755 226.577,41.755 C226.311,41.755 226.074,41.798 225.858,41.877 C225.647,41.958 225.464,42.07 225.311,42.212 C225.157,42.355 225.039,42.521 224.947,42.708 C224.86,42.896 224.807,43.097 224.793,43.309 L228.374,43.309 C228.357,43.097 228.305,42.894 228.213,42.703" id="Shape" fill-rule="nonzero"></path>
            <rect id="Rectangle" x="230.437" y="45.407" width="1.34" height="1.182"></rect>
            <polygon id="Path" points="73.185 35.097 66.041 35.097 66.041 22.283 53.828 22.283 53.828 35.097 46.684 35.097 46.684 4.506 53.828 4.506 53.828 16.343 66.041 16.343 66.041 4.506 73.185 4.506"></polygon>
            <path d="M80.459,10.712 C78.077,10.712 76.446,9.249 76.446,7.033 C76.446,4.86 78.077,3.354 80.459,3.354 C82.839,3.354 84.471,4.86 84.471,7.033 C84.471,9.25 82.839,10.712 80.459,10.712 Z M83.985,35.097 L76.931,35.097 L76.931,13.239 L83.985,13.239 L83.985,35.097 Z" id="Shape" fill-rule="nonzero"></path>
            <path d="M101.313,35.585 C98.095,35.585 95.802,34.387 94.435,32.348 L94.435,46.589 L87.38,46.589 L87.38,13.239 L94.083,13.239 L94.038,16.032 L94.127,16.032 C95.714,14.127 98.052,12.841 101.358,12.841 C107.62,12.841 111.587,17.762 111.587,24.19 C111.587,30.619 107.62,35.585 101.313,35.585 M99.285,18.427 C96.286,18.427 94.214,20.732 94.214,24.102 C94.214,27.47 96.286,29.777 99.285,29.777 C102.327,29.777 104.401,27.469 104.401,24.102 C104.401,20.732 102.328,18.427 99.285,18.427" id="Shape" fill-rule="nonzero"></path>
            <path d="M134.778,25.874 L119.302,25.874 C119.611,29.023 121.991,30.44 124.859,30.44 C127.68,30.44 130.15,29.2 131.383,28.357 L134.162,32.037 C133.454,32.569 130.589,35.585 123.845,35.585 C117.141,35.585 112.248,31.417 112.248,24.19 C112.248,16.964 117.537,12.84 123.975,12.84 C130.413,12.84 134.868,17.14 134.868,23.525 C134.868,24.589 134.778,25.874 134.778,25.874 Z M128.298,21.84 C128.253,19.846 126.801,17.452 123.846,17.452 C120.935,17.452 119.435,19.757 119.347,21.84 L128.298,21.84 Z" id="Shape" fill-rule="nonzero"></path>
            <path d="M150.96,19.757 L150.651,19.757 C150.254,19.535 149.33,19.225 148.095,19.225 C146.505,19.225 145.361,20.111 144.832,20.82 C144.3,21.529 143.727,22.948 143.727,25.386 L143.727,35.096 L136.673,35.096 L136.673,13.239 L143.727,13.239 L143.684,16.343 L143.773,16.343 C145.008,13.949 146.814,12.841 149.152,12.841 C150.607,12.841 151.355,13.239 151.355,13.239 L150.96,19.757 Z" id="Path"></path>
            <polygon id="Path" points="187.909 13.239 180.767 35.097 174.109 35.097 169.875 21.708 165.601 35.097 158.941 35.097 151.797 13.239 158.941 13.239 162.777 27.204 166.966 13.239 172.741 13.239 176.931 27.204 180.767 13.239"></polygon>
            <path d="M208.366,35.097 L201.623,35.097 L201.488,32.791 C200.563,33.723 198.8,35.585 195.272,35.585 C191.437,35.585 187.379,33.501 187.379,28.623 C187.379,23.746 191.833,22.106 195.844,21.929 L201.313,21.708 L201.313,21.22 C201.313,18.913 199.682,17.717 196.86,17.717 C194.083,17.717 191.302,18.958 190.2,19.668 L188.35,15.057 C190.2,14.126 193.595,12.84 197.654,12.84 C201.712,12.84 204.047,13.77 205.766,15.367 C207.442,16.964 208.366,19.091 208.366,22.77 L208.366,35.097 Z M201.358,25.477 L197.874,25.698 C195.714,25.787 194.435,26.719 194.435,28.358 C194.435,30.044 195.801,31.062 197.743,31.062 C199.638,31.062 200.917,29.821 201.359,29.067 L201.359,25.477 L201.358,25.477 Z" id="Shape" fill-rule="nonzero"></path>
            <rect id="Rectangle" x="211.453" y="4.506" width="7.056" height="30.59"></rect>
            <rect id="Rectangle" x="222.034" y="4.506" width="7.056" height="30.59"></rect>
            <text id="®" font-family="Helvetica" font-size="7.0074" font-weight="normal">
                <tspan x="231.2383" y="8.9238">®</tspan>
            </text>
            <path d="M231.639,40.759 C231.718,40.579 231.825,40.424 231.959,40.292 C232.092,40.161 232.249,40.059 232.427,39.984 C232.607,39.909 232.798,39.872 232.997,39.872 C233.197,39.872 233.39,39.909 233.566,39.984 C233.741,40.058 233.898,40.161 234.032,40.292 C234.166,40.424 234.27,40.579 234.347,40.759 C234.427,40.935 234.464,41.129 234.464,41.335 C234.464,41.548 234.427,41.742 234.347,41.925 C234.27,42.104 234.165,42.259 234.032,42.393 C233.898,42.525 233.741,42.627 233.566,42.7 C233.389,42.773 233.197,42.811 232.997,42.811 C232.798,42.811 232.606,42.773 232.427,42.7 C232.249,42.628 232.092,42.525 231.959,42.393 C231.824,42.259 231.718,42.104 231.639,41.925 C231.561,41.742 231.521,41.548 231.521,41.335 C231.521,41.129 231.561,40.935 231.639,40.759 Z M231.879,41.837 C231.942,41.989 232.025,42.124 232.135,42.235 C232.241,42.349 232.37,42.439 232.519,42.503 C232.666,42.565 232.827,42.597 232.998,42.597 C233.169,42.597 233.325,42.565 233.473,42.503 C233.618,42.44 233.744,42.35 233.854,42.235 C233.964,42.124 234.047,41.989 234.109,41.837 C234.172,41.683 234.199,41.517 234.199,41.335 C234.199,41.159 234.172,40.995 234.109,40.844 C234.047,40.692 233.964,40.56 233.854,40.448 C233.745,40.337 233.618,40.249 233.473,40.184 C233.326,40.119 233.169,40.087 232.998,40.087 C232.827,40.087 232.667,40.118 232.519,40.184 C232.371,40.248 232.242,40.336 232.135,40.448 C232.026,40.559 231.942,40.691 231.879,40.844 C231.819,40.995 231.787,41.159 231.787,41.335 C231.787,41.517 231.819,41.683 231.879,41.837 Z M233.089,40.481 C233.29,40.481 233.441,40.521 233.543,40.605 C233.638,40.683 233.688,40.807 233.688,40.971 C233.688,41.128 233.643,41.241 233.558,41.314 C233.472,41.386 233.366,41.427 233.239,41.441 L233.727,42.201 L233.441,42.201 L232.976,41.46 L232.694,41.46 L232.694,42.201 L232.425,42.201 L232.425,40.481 L233.089,40.481 Z M232.97,41.245 C233.03,41.245 233.087,41.242 233.141,41.24 C233.195,41.235 233.244,41.223 233.284,41.205 C233.325,41.186 233.359,41.158 233.384,41.12 C233.41,41.084 233.423,41.029 233.423,40.961 C233.423,40.903 233.41,40.857 233.388,40.823 C233.367,40.79 233.336,40.763 233.301,40.746 C233.268,40.726 233.227,40.715 233.181,40.708 C233.134,40.701 233.092,40.698 233.046,40.698 L232.694,40.698 L232.694,41.245 L232.97,41.245 Z" id="Shape" fill-rule="nonzero"></path>
            <path d="M15.058,15.146 C17.619,12.57 21.771,12.57 24.313,15.146 C26.871,17.722 26.871,21.9 24.313,24.457 C21.771,27.032 17.619,27.032 15.058,24.457 C12.498,21.9 12.498,17.722 15.058,15.146" id="Path"></path>
            <polygon id="Path" points="6.894 32.655 6.894 20.792 0.523 20.792 0.523 39.065 18.68 39.065 18.68 32.655"></polygon>
            <polygon id="Path" points="20.689 0.535 20.689 6.947 32.475 6.947 32.475 18.81 38.846 18.81 38.846 0.535"></polygon>
            <path d="M32.459,20.789 C31.994,27.105 26.987,32.144 20.712,32.613 L20.712,39.04 C30.506,38.556 38.363,30.647 38.845,20.789 L32.459,20.789 Z" id="Path"></path>
            <path d="M18.669,6.963 L18.669,0.535 C8.873,1.02 1.017,8.928 0.535,18.787 L6.921,18.787 C7.387,12.472 12.394,7.432 18.669,6.963" id="Path"></path>
        </g>
    </g>
</svg>