<?xml version="1.0" encoding="utf-8"?>
<!-- Generator: Adobe Illustrator 23.0.1, SVG Export Plug-In . SVG Version: 6.00 Build 0)  -->
<svg version="1.1" id="Layer_1" xmlns="http://www.w3.org/2000/svg" xmlns:xlink="http://www.w3.org/1999/xlink" x="0px" y="0px"
	 viewBox="0 0 238 49" style="enable-background:new 0 0 238 49;" xml:space="preserve">
<style type="text/css">
	.st0{fill-rule:evenodd;clip-rule:evenodd;fill:#0088CE;}
	.st1{fill:#0088CE;}
	.st2{fill-rule:evenodd;clip-rule:evenodd;fill:#FFFFFF;}
	.st3{fill:#FFFFFF;}
	.st4{enable-background:new    ;}
</style>
<title>Logos/White-Blue</title>
<desc>Created with Sketch.</desc>
<g>
	<path id="Path" class="st0" d="M117.8,40c-0.4-0.2-0.9-0.4-1.5-0.4c-0.2,0-0.5,0-0.7,0.1c-0.2,0-0.4,0.1-0.6,0.2
		c-0.2,0.1-0.3,0.2-0.4,0.4c-0.1,0.2-0.2,0.4-0.2,0.6c0,0.2,0.1,0.4,0.2,0.6c0.2,0.1,0.4,0.3,0.6,0.4c0.3,0.1,0.6,0.2,0.9,0.2
		c0.3,0.1,0.7,0.1,1,0.2c0.3,0.1,0.7,0.2,1,0.2c0.3,0.1,0.6,0.2,0.9,0.4c0.3,0.2,0.5,0.4,0.6,0.6c0.2,0.2,0.2,0.6,0.2,0.9
		c0,0.4-0.1,0.7-0.3,1c-0.2,0.3-0.5,0.5-0.8,0.7c-0.3,0.2-0.7,0.3-1.1,0.4c-0.4,0.1-0.8,0.1-1.2,0.1c-0.5,0-0.9-0.1-1.4-0.2
		c-0.4-0.1-0.8-0.3-1.1-0.5c-0.3-0.2-0.6-0.5-0.8-0.8c-0.2-0.3-0.3-0.7-0.3-1.2h1.1c0,0.3,0.1,0.6,0.2,0.8c0.1,0.2,0.3,0.4,0.6,0.6
		c0.2,0.1,0.5,0.3,0.8,0.3c0.3,0.1,0.6,0.1,0.9,0.1c0.3,0,0.5,0,0.8-0.1c0.3,0,0.5-0.1,0.7-0.2c0.2-0.1,0.4-0.2,0.5-0.4
		c0.1-0.2,0.2-0.4,0.2-0.7c0-0.3-0.1-0.5-0.2-0.6c-0.2-0.2-0.4-0.3-0.6-0.4c-0.3-0.1-0.6-0.2-0.9-0.3c-0.3-0.1-0.7-0.1-1-0.2
		c-0.3-0.1-0.7-0.1-1-0.2c-0.3-0.1-0.6-0.2-0.9-0.4c-0.3-0.1-0.5-0.3-0.6-0.6s-0.2-0.5-0.2-0.9c0-0.4,0.1-0.7,0.3-1
		c0.2-0.3,0.4-0.5,0.7-0.7c0.3-0.2,0.6-0.3,1-0.4c0.4-0.1,0.8-0.1,1.2-0.1c0.4,0,0.9,0,1.2,0.1c0.4,0.1,0.7,0.2,1,0.4
		c0.3,0.2,0.5,0.4,0.7,0.8c0.2,0.3,0.3,0.7,0.3,1.1h-1.1C118.4,40.7,118.1,40.3,117.8,40"/>
	<path id="Shape" class="st1" d="M125.9,46.2c-0.5,0.3-1.1,0.5-1.8,0.5c-0.5,0-0.9-0.1-1.3-0.2c-0.4-0.1-0.7-0.3-0.9-0.6
		c-0.2-0.3-0.4-0.6-0.6-0.9c-0.1-0.4-0.2-0.7-0.2-1.2c0-0.4,0.1-0.8,0.2-1.1c0.1-0.4,0.3-0.7,0.6-0.9c0.3-0.3,0.6-0.5,0.9-0.6
		c0.4-0.1,0.8-0.2,1.2-0.2c0.6,0,1,0.1,1.4,0.3c0.4,0.2,0.7,0.5,0.9,0.8c0.2,0.3,0.4,0.7,0.5,1c0.1,0.4,0.1,0.7,0.1,1.1h-4.7
		c0,0.2,0,0.5,0.1,0.7c0.1,0.2,0.2,0.4,0.3,0.6c0.2,0.2,0.4,0.3,0.6,0.4c0.3,0.1,0.5,0.1,0.9,0.1c0.4,0,0.8-0.1,1.1-0.3
		c0.3-0.2,0.5-0.4,0.5-0.8h1C126.7,45.5,126.4,45.9,125.9,46.2 M125.7,42.7c-0.1-0.2-0.2-0.4-0.4-0.5c-0.2-0.1-0.3-0.2-0.6-0.3
		c-0.2-0.1-0.4-0.1-0.7-0.1c-0.3,0-0.5,0-0.7,0.1c-0.2,0.1-0.4,0.2-0.6,0.3c-0.2,0.1-0.3,0.3-0.4,0.5c-0.1,0.2-0.1,0.4-0.2,0.6h3.6
		C125.8,43.1,125.8,42.9,125.7,42.7"/>
	<path class="st1" d="M133.3,46.2c-0.5,0.3-1.1,0.5-1.8,0.5c-0.5,0-0.9-0.1-1.3-0.2c-0.4-0.1-0.7-0.3-0.9-0.6
		c-0.2-0.3-0.4-0.6-0.6-0.9c-0.1-0.4-0.2-0.7-0.2-1.2c0-0.4,0.1-0.8,0.2-1.1c0.1-0.4,0.3-0.7,0.6-0.9c0.3-0.3,0.6-0.5,0.9-0.6
		c0.4-0.1,0.7-0.2,1.2-0.2c0.6,0,1,0.1,1.4,0.3c0.4,0.2,0.7,0.5,0.9,0.8c0.2,0.3,0.4,0.7,0.5,1c0.1,0.4,0.1,0.7,0.1,1.1h-4.7
		c0,0.2,0,0.5,0.1,0.7c0.1,0.2,0.2,0.4,0.4,0.6c0.2,0.2,0.4,0.3,0.6,0.4c0.2,0.1,0.5,0.1,0.9,0.1c0.4,0,0.8-0.1,1.1-0.3
		c0.3-0.2,0.5-0.4,0.5-0.8h1C134.1,45.5,133.8,45.9,133.3,46.2 M133,42.7c-0.1-0.2-0.2-0.4-0.4-0.5s-0.3-0.2-0.6-0.3
		c-0.2-0.1-0.4-0.1-0.7-0.1c-0.3,0-0.5,0-0.7,0.1c-0.2,0.1-0.4,0.2-0.5,0.3c-0.2,0.1-0.3,0.3-0.4,0.5c-0.1,0.2-0.1,0.4-0.2,0.6h3.6
		C133.2,43.1,133.1,42.9,133,42.7"/>
	<path class="st0" d="M143.2,41.1v0.8h-1.2v3.4c0,0.1,0,0.2,0,0.3c0,0.1,0.1,0.1,0.1,0.1c0.1,0,0.1,0.1,0.2,0.1c0.1,0,0.2,0,0.4,0
		h0.5v0.8h-0.8c-0.3,0-0.5,0-0.7,0c-0.2,0-0.3-0.1-0.5-0.2c-0.1-0.1-0.2-0.2-0.3-0.4c-0.1-0.2-0.1-0.4-0.1-0.6v-3.5h-1.1v-0.8h1.1
		v-1.6h1v1.6H143.2z"/>
	<path class="st0" d="M146.2,39v2.9h0c0.1-0.2,0.2-0.3,0.3-0.4c0.1-0.1,0.3-0.2,0.5-0.3c0.2-0.1,0.4-0.1,0.6-0.2
		c0.2,0,0.4-0.1,0.6-0.1c0.4,0,0.8,0,1,0.1c0.3,0.1,0.5,0.2,0.7,0.4c0.2,0.2,0.3,0.4,0.4,0.6c0.1,0.2,0.1,0.5,0.1,0.8v3.6h-1v-3.7
		c0-0.3-0.1-0.6-0.3-0.8c-0.2-0.2-0.5-0.3-0.9-0.3c-0.3,0-0.6,0-0.8,0.1c-0.2,0.1-0.4,0.2-0.6,0.4c-0.2,0.2-0.3,0.3-0.3,0.5
		c-0.1,0.2-0.1,0.4-0.1,0.7v3.1h-1V39L146.2,39L146.2,39z"/>
	<path class="st1" d="M157.2,46.2c-0.5,0.3-1.1,0.5-1.8,0.5c-0.5,0-0.9-0.1-1.3-0.2c-0.4-0.1-0.7-0.3-0.9-0.6
		c-0.2-0.3-0.4-0.6-0.6-0.9c-0.1-0.4-0.2-0.7-0.2-1.2c0-0.4,0.1-0.8,0.2-1.1c0.1-0.4,0.3-0.7,0.6-0.9c0.3-0.3,0.6-0.5,0.9-0.6
		c0.4-0.1,0.8-0.2,1.2-0.2c0.6,0,1,0.1,1.4,0.3c0.4,0.2,0.7,0.5,0.9,0.8c0.2,0.3,0.4,0.7,0.5,1c0.1,0.4,0.1,0.7,0.1,1.1h-4.7
		c0,0.2,0,0.5,0.1,0.7c0.1,0.2,0.2,0.4,0.4,0.6c0.2,0.2,0.4,0.3,0.6,0.4c0.2,0.1,0.5,0.1,0.9,0.1c0.4,0,0.8-0.1,1.1-0.3
		c0.3-0.2,0.5-0.4,0.5-0.8h1C158,45.5,157.7,45.9,157.2,46.2 M156.9,42.7c-0.1-0.2-0.2-0.4-0.4-0.5c-0.2-0.1-0.3-0.2-0.6-0.3
		c-0.2-0.1-0.4-0.1-0.7-0.1c-0.3,0-0.5,0-0.7,0.1c-0.2,0.1-0.4,0.2-0.6,0.3c-0.2,0.1-0.3,0.3-0.4,0.5c-0.1,0.2-0.1,0.4-0.2,0.6h3.6
		C157.1,43.1,157,42.9,156.9,42.7"/>
	<path class="st1" d="M165.5,39v2.8h0c0.2-0.3,0.4-0.5,0.8-0.7c0.4-0.1,0.8-0.2,1.2-0.2c0.5,0,0.9,0.1,1.3,0.2
		c0.4,0.2,0.7,0.4,0.9,0.6c0.2,0.3,0.4,0.6,0.5,0.9c0.1,0.3,0.2,0.7,0.2,1.1s-0.1,0.8-0.2,1.1c-0.1,0.3-0.3,0.7-0.5,0.9
		c-0.2,0.3-0.5,0.5-0.9,0.6c-0.4,0.1-0.8,0.2-1.2,0.2c-0.2,0-0.3,0-0.5,0c-0.2,0-0.4-0.1-0.6-0.1c-0.2-0.1-0.4-0.1-0.5-0.3
		c-0.2-0.1-0.3-0.2-0.4-0.4h0v0.7h-1V39L165.5,39L165.5,39z M169.1,43c-0.1-0.2-0.2-0.5-0.4-0.7c-0.2-0.2-0.4-0.3-0.6-0.5
		c-0.2-0.1-0.5-0.2-0.9-0.2c-0.3,0-0.6,0.1-0.9,0.2c-0.2,0.1-0.4,0.3-0.6,0.5c-0.2,0.2-0.3,0.4-0.3,0.7c-0.1,0.3-0.1,0.5-0.1,0.8
		c0,0.3,0,0.5,0.1,0.8c0.1,0.3,0.2,0.5,0.3,0.7c0.2,0.2,0.4,0.3,0.6,0.5c0.2,0.1,0.6,0.2,0.9,0.2c0.4,0,0.6-0.1,0.9-0.2
		c0.2-0.1,0.4-0.3,0.6-0.5c0.1-0.2,0.2-0.4,0.3-0.7c0.1-0.3,0.1-0.5,0.1-0.8C169.3,43.5,169.2,43.3,169.1,43z"/>
	<path class="st1" d="M172.5,39h1v1.1h-1V39z M173.5,46.6h-1v-5.5h1V46.6z"/>
	<path class="st1" d="M180.7,48.1c-0.5,0.4-1.2,0.7-2.2,0.7c-0.3,0-0.6,0-0.9-0.1c-0.3-0.1-0.6-0.1-0.8-0.3
		c-0.2-0.1-0.4-0.3-0.6-0.5c-0.2-0.2-0.2-0.5-0.3-0.8h1c0,0.2,0.1,0.3,0.2,0.4c0.1,0.1,0.2,0.2,0.4,0.3c0.2,0.1,0.3,0.1,0.5,0.2
		c0.2,0,0.4,0,0.5,0c0.3,0,0.6-0.1,0.9-0.2c0.2-0.1,0.4-0.2,0.6-0.4c0.2-0.2,0.3-0.4,0.3-0.7c0.1-0.3,0.1-0.5,0.1-0.8v-0.4h0
		c-0.2,0.3-0.4,0.6-0.8,0.8c-0.4,0.2-0.7,0.2-1.1,0.2c-0.5,0-0.9-0.1-1.2-0.2c-0.3-0.1-0.6-0.4-0.9-0.6c-0.2-0.2-0.4-0.5-0.5-0.9
		c-0.1-0.3-0.2-0.7-0.2-1.1c0-0.3,0-0.7,0.1-1c0.1-0.3,0.3-0.7,0.5-0.9c0.2-0.3,0.5-0.5,0.9-0.7c0.4-0.2,0.8-0.3,1.4-0.3
		c0.4,0,0.8,0.1,1.1,0.2c0.3,0.2,0.6,0.4,0.8,0.7h0v-0.8h1v5C181.4,47,181.2,47.7,180.7,48.1 M179.4,45.7c0.2-0.1,0.4-0.3,0.6-0.5
		c0.1-0.2,0.3-0.4,0.3-0.7c0.1-0.3,0.1-0.5,0.1-0.8c0-0.2,0-0.5-0.1-0.7c-0.1-0.2-0.2-0.4-0.3-0.6c-0.1-0.2-0.3-0.3-0.6-0.5
		c-0.2-0.1-0.5-0.2-0.8-0.2c-0.3,0-0.6,0.1-0.8,0.2c-0.2,0.1-0.4,0.3-0.6,0.4c-0.1,0.2-0.3,0.4-0.3,0.6c-0.1,0.2-0.1,0.5-0.1,0.8
		c0,0.2,0,0.5,0.1,0.7c0.1,0.2,0.2,0.5,0.3,0.7c0.1,0.2,0.3,0.4,0.5,0.5c0.2,0.1,0.5,0.2,0.8,0.2C178.9,45.9,179.1,45.8,179.4,45.7"
		/>
	<path class="st1" d="M189.1,41.1v0.7h0c0.2-0.3,0.4-0.5,0.8-0.7c0.4-0.1,0.8-0.2,1.2-0.2c0.5,0,0.9,0.1,1.3,0.2
		c0.4,0.2,0.7,0.4,0.9,0.6c0.2,0.3,0.4,0.6,0.5,0.9c0.1,0.3,0.2,0.7,0.2,1.1s-0.1,0.8-0.2,1.1c-0.1,0.3-0.3,0.7-0.5,0.9
		c-0.2,0.3-0.5,0.5-0.9,0.6c-0.4,0.1-0.8,0.2-1.2,0.2c-0.2,0-0.3,0-0.5,0c-0.2,0-0.4-0.1-0.6-0.1c-0.2-0.1-0.4-0.1-0.5-0.3
		c-0.2-0.1-0.3-0.2-0.4-0.4h0v2.8h-1v-7.6L189.1,41.1L189.1,41.1z M192.8,43c-0.1-0.2-0.2-0.5-0.4-0.7c-0.2-0.2-0.4-0.3-0.6-0.5
		c-0.2-0.1-0.5-0.2-0.9-0.2c-0.3,0-0.6,0.1-0.9,0.2c-0.2,0.1-0.4,0.3-0.6,0.5c-0.2,0.2-0.3,0.4-0.3,0.7c-0.1,0.3-0.1,0.5-0.1,0.8
		c0,0.3,0,0.5,0.1,0.8c0.1,0.3,0.2,0.5,0.3,0.7c0.2,0.2,0.4,0.3,0.6,0.5c0.2,0.1,0.5,0.2,0.9,0.2c0.4,0,0.6-0.1,0.9-0.2
		c0.2-0.1,0.4-0.3,0.6-0.5c0.1-0.2,0.2-0.4,0.3-0.7c0.1-0.3,0.1-0.5,0.1-0.8C192.9,43.5,192.9,43.3,192.8,43z"/>
	<path class="st1" d="M196.2,39h1v1.1h-1V39z M197.2,46.6h-1v-5.5h1V46.6z"/>
	<path class="st0" d="M203.4,42c-0.3-0.2-0.6-0.3-1-0.3c-0.4,0-0.7,0.1-0.9,0.2c-0.2,0.1-0.4,0.3-0.6,0.5s-0.3,0.4-0.3,0.7
		c-0.1,0.3-0.1,0.5-0.1,0.8c0,0.3,0,0.5,0.1,0.7c0.1,0.2,0.2,0.5,0.3,0.6c0.1,0.2,0.3,0.3,0.6,0.5s0.5,0.2,0.8,0.2
		c0.5,0,0.9-0.1,1.2-0.4c0.3-0.2,0.5-0.6,0.5-1h1c-0.1,0.7-0.4,1.2-0.9,1.6c-0.5,0.4-1.1,0.6-1.9,0.6c-0.5,0-0.9-0.1-1.3-0.2
		c-0.4-0.1-0.7-0.3-0.9-0.6c-0.2-0.2-0.4-0.5-0.6-0.9c-0.1-0.3-0.2-0.7-0.2-1.1c0-0.4,0.1-0.8,0.2-1.2c0.1-0.4,0.3-0.7,0.5-0.9
		c0.2-0.3,0.6-0.5,0.9-0.6c0.4-0.2,0.8-0.2,1.3-0.2c0.4,0,0.7,0,1,0.1c0.3,0.1,0.6,0.2,0.8,0.3c0.2,0.2,0.4,0.4,0.6,0.6
		c0.2,0.2,0.3,0.5,0.3,0.8h-1.1C203.8,42.5,203.7,42.2,203.4,42"/>
	<path class="st0" d="M209.7,41.1v0.8h-1.2v3.4c0,0.1,0,0.2,0,0.3c0,0.1,0.1,0.1,0.1,0.1c0.1,0,0.1,0.1,0.2,0.1c0.1,0,0.2,0,0.4,0
		h0.5v0.8h-0.8c-0.3,0-0.5,0-0.7,0c-0.2,0-0.3-0.1-0.5-0.2c-0.1-0.1-0.2-0.2-0.3-0.4c-0.1-0.2-0.1-0.4-0.1-0.6v-3.5h-1.1v-0.8h1.1
		v-1.6h1v1.6H209.7z"/>
	<path class="st0" d="M215.9,46.6v-0.9h0c-0.2,0.3-0.5,0.6-0.8,0.7c-0.3,0.2-0.7,0.2-1.2,0.2c-0.4,0-0.8,0-1-0.1
		c-0.3-0.1-0.5-0.2-0.7-0.4c-0.2-0.2-0.3-0.4-0.4-0.6c-0.1-0.2-0.1-0.5-0.1-0.8v-3.6h1v3.7c0,0.3,0.1,0.6,0.3,0.8
		c0.2,0.2,0.5,0.3,0.9,0.3c0.3,0,0.6,0,0.8-0.1c0.2-0.1,0.4-0.2,0.6-0.4c0.2-0.2,0.3-0.3,0.3-0.5c0.1-0.2,0.1-0.4,0.1-0.7v-3.1h1
		v5.5L215.9,46.6L215.9,46.6z"/>
	<path class="st0" d="M220.3,41.1v1.2h0c0.2-0.4,0.6-0.8,0.9-1c0.4-0.2,0.8-0.3,1.4-0.3v1c-0.4,0-0.8,0-1.1,0.1
		c-0.3,0.1-0.5,0.2-0.7,0.4s-0.3,0.4-0.4,0.7c-0.1,0.3-0.1,0.6-0.1,0.9v2.4h-1v-5.5L220.3,41.1L220.3,41.1z"/>
	<path class="st1" d="M228.5,46.2c-0.5,0.3-1.1,0.5-1.8,0.5c-0.5,0-0.9-0.1-1.3-0.2c-0.4-0.1-0.7-0.3-0.9-0.6
		c-0.2-0.3-0.4-0.6-0.6-0.9c-0.1-0.4-0.2-0.7-0.2-1.2c0-0.4,0.1-0.8,0.2-1.1c0.1-0.4,0.3-0.7,0.6-0.9c0.3-0.3,0.6-0.5,0.9-0.6
		c0.4-0.1,0.8-0.2,1.2-0.2c0.6,0,1,0.1,1.4,0.3c0.4,0.2,0.7,0.5,0.9,0.8c0.2,0.3,0.4,0.7,0.5,1c0.1,0.4,0.1,0.7,0.1,1.1h-4.7
		c0,0.2,0,0.5,0.1,0.7c0.1,0.2,0.2,0.4,0.4,0.6c0.2,0.2,0.4,0.3,0.6,0.4c0.2,0.1,0.5,0.1,0.9,0.1c0.4,0,0.8-0.1,1.1-0.3
		c0.3-0.2,0.5-0.4,0.6-0.8h1C229.2,45.5,228.9,45.9,228.5,46.2 M228.2,42.7c-0.1-0.2-0.2-0.4-0.4-0.5c-0.2-0.1-0.3-0.2-0.6-0.3
		c-0.2-0.1-0.4-0.1-0.7-0.1c-0.3,0-0.5,0-0.7,0.1c-0.2,0.1-0.4,0.2-0.5,0.3c-0.2,0.1-0.3,0.3-0.4,0.5c-0.1,0.2-0.1,0.4-0.2,0.6h3.6
		C228.4,43.1,228.3,42.9,228.2,42.7"/>
	<rect id="Rectangle" x="230.4" y="45.4" class="st0" width="1.3" height="1.2"/>
	<polygon class="st2" points="73.2,35.1 66,35.1 66,22.3 53.8,22.3 53.8,35.1 46.7,35.1 46.7,4.5 53.8,4.5 53.8,16.3 66,16.3 
		66,4.5 73.2,4.5 	"/>
	<path class="st3" d="M80.5,10.7c-2.4,0-4-1.5-4-3.7c0-2.2,1.6-3.7,4-3.7c2.4,0,4,1.5,4,3.7C84.5,9.2,82.8,10.7,80.5,10.7z M84,35.1
		h-7.1V13.2H84V35.1z"/>
	<path class="st3" d="M101.3,35.6c-3.2,0-5.5-1.2-6.9-3.2v14.2h-7.1V13.2h6.7l0,2.8h0.1c1.6-1.9,3.9-3.2,7.2-3.2
		c6.3,0,10.2,4.9,10.2,11.3C111.6,30.6,107.6,35.6,101.3,35.6 M99.3,18.4c-3,0-5.1,2.3-5.1,5.7c0,3.4,2.1,5.7,5.1,5.7
		c3,0,5.1-2.3,5.1-5.7C104.4,20.7,102.3,18.4,99.3,18.4"/>
	<path class="st3" d="M134.8,25.9h-15.5c0.3,3.1,2.7,4.6,5.6,4.6c2.8,0,5.3-1.2,6.5-2.1l2.8,3.7c-0.7,0.5-3.6,3.5-10.3,3.5
		c-6.7,0-11.6-4.2-11.6-11.4c0-7.2,5.3-11.4,11.7-11.4s10.9,4.3,10.9,10.7C134.9,24.6,134.8,25.9,134.8,25.9z M128.3,21.8
		c0-2-1.5-4.4-4.5-4.4c-2.9,0-4.4,2.3-4.5,4.4H128.3z"/>
	<path class="st2" d="M151,19.8h-0.3c-0.4-0.2-1.3-0.5-2.6-0.5c-1.6,0-2.7,0.9-3.3,1.6c-0.5,0.7-1.1,2.1-1.1,4.6v9.7h-7.1V13.2h7.1
		l0,3.1h0.1c1.2-2.4,3-3.5,5.4-3.5c1.5,0,2.2,0.4,2.2,0.4L151,19.8z"/>
	<polygon class="st2" points="187.9,13.2 180.8,35.1 174.1,35.1 169.9,21.7 165.6,35.1 158.9,35.1 151.8,13.2 158.9,13.2 
		162.8,27.2 167,13.2 172.7,13.2 176.9,27.2 180.8,13.2 	"/>
	<path class="st3" d="M208.4,35.1h-6.7l-0.1-2.3c-0.9,0.9-2.7,2.8-6.2,2.8c-3.8,0-7.9-2.1-7.9-7c0-4.9,4.5-6.5,8.5-6.7l5.5-0.2v-0.5
		c0-2.3-1.6-3.5-4.5-3.5c-2.8,0-5.6,1.2-6.7,2l-1.8-4.6c1.8-0.9,5.2-2.2,9.3-2.2c4.1,0,6.4,0.9,8.1,2.5c1.7,1.6,2.6,3.7,2.6,7.4
		V35.1z M201.4,25.5l-3.5,0.2c-2.2,0.1-3.4,1-3.4,2.7c0,1.7,1.4,2.7,3.3,2.7c1.9,0,3.2-1.2,3.6-2L201.4,25.5L201.4,25.5z"/>
	<rect x="211.5" y="4.5" class="st2" width="7.1" height="30.6"/>
	<rect x="222" y="4.5" class="st2" width="7.1" height="30.6"/>
	<g class="st4">
		<path class="st3" d="M235.6,8.2c-0.5,0.5-1.1,0.7-1.8,0.7s-1.3-0.2-1.8-0.7c-0.5-0.5-0.7-1.1-0.7-1.8c0-0.7,0.2-1.3,0.7-1.8
			c0.5-0.5,1.1-0.7,1.8-0.7c0.7,0,1.3,0.2,1.8,0.7s0.7,1.1,0.7,1.8C236.3,7.1,236.1,7.7,235.6,8.2z M232.3,4.9
			c-0.4,0.4-0.6,0.9-0.6,1.5c0,0.6,0.2,1.1,0.6,1.5c0.4,0.4,0.9,0.6,1.5,0.6s1.1-0.2,1.5-0.6c0.4-0.4,0.6-0.9,0.6-1.5
			c0-0.6-0.2-1.1-0.6-1.5c-0.4-0.4-0.9-0.6-1.5-0.6C233.2,4.2,232.7,4.5,232.3,4.9z M233.8,5c0.3,0,0.6,0,0.8,0.1
			c0.3,0.1,0.4,0.4,0.4,0.7c0,0.2-0.1,0.4-0.3,0.5c-0.1,0.1-0.2,0.1-0.4,0.1c0.2,0,0.4,0.1,0.5,0.3s0.1,0.3,0.1,0.4v0.2
			c0,0.1,0,0.1,0,0.2c0,0.1,0,0.1,0,0.1l0,0h-0.5c0,0,0,0,0,0c0,0,0,0,0,0l0-0.1V7.4c0-0.3-0.1-0.5-0.3-0.6
			c-0.1-0.1-0.3-0.1-0.5-0.1h-0.4v1.1h-0.5V5H233.8z M234.3,5.5c-0.1-0.1-0.3-0.1-0.6-0.1h-0.4v1h0.4c0.2,0,0.4,0,0.5-0.1
			c0.2-0.1,0.3-0.2,0.3-0.4C234.5,5.7,234.4,5.5,234.3,5.5z"/>
	</g>
	<path class="st1" d="M231.6,40.8c0.1-0.2,0.2-0.3,0.3-0.5c0.1-0.1,0.3-0.2,0.5-0.3c0.2-0.1,0.4-0.1,0.6-0.1c0.2,0,0.4,0,0.6,0.1
		c0.2,0.1,0.3,0.2,0.5,0.3c0.1,0.1,0.2,0.3,0.3,0.5c0.1,0.2,0.1,0.4,0.1,0.6c0,0.2,0,0.4-0.1,0.6c-0.1,0.2-0.2,0.3-0.3,0.5
		c-0.1,0.1-0.3,0.2-0.5,0.3c-0.2,0.1-0.4,0.1-0.6,0.1c-0.2,0-0.4,0-0.6-0.1c-0.2-0.1-0.3-0.2-0.5-0.3c-0.1-0.1-0.2-0.3-0.3-0.5
		c-0.1-0.2-0.1-0.4-0.1-0.6C231.5,41.1,231.6,40.9,231.6,40.8z M231.9,41.8c0.1,0.2,0.1,0.3,0.3,0.4c0.1,0.1,0.2,0.2,0.4,0.3
		c0.1,0.1,0.3,0.1,0.5,0.1s0.3,0,0.5-0.1c0.1-0.1,0.3-0.2,0.4-0.3c0.1-0.1,0.2-0.2,0.3-0.4c0.1-0.2,0.1-0.3,0.1-0.5
		c0-0.2,0-0.3-0.1-0.5c-0.1-0.2-0.1-0.3-0.3-0.4c-0.1-0.1-0.2-0.2-0.4-0.3c-0.1-0.1-0.3-0.1-0.5-0.1s-0.3,0-0.5,0.1
		c-0.1,0.1-0.3,0.2-0.4,0.3c-0.1,0.1-0.2,0.2-0.3,0.4c-0.1,0.2-0.1,0.3-0.1,0.5C231.8,41.5,231.8,41.7,231.9,41.8z M233.1,40.5
		c0.2,0,0.4,0,0.5,0.1c0.1,0.1,0.1,0.2,0.1,0.4c0,0.2,0,0.3-0.1,0.3c-0.1,0.1-0.2,0.1-0.3,0.1l0.5,0.8h-0.3l-0.5-0.7h-0.3v0.7h-0.3
		v-1.7H233.1z M233,41.2c0.1,0,0.1,0,0.2,0c0.1,0,0.1,0,0.1,0c0,0,0.1,0,0.1-0.1c0,0,0-0.1,0-0.2c0-0.1,0-0.1,0-0.1
		c0,0-0.1-0.1-0.1-0.1c0,0-0.1,0-0.1,0c0,0-0.1,0-0.1,0h-0.4v0.5H233z"/>
	<path class="st2" d="M15.1,15.1c2.6-2.6,6.7-2.6,9.3,0c2.6,2.6,2.6,6.8,0,9.3c-2.5,2.6-6.7,2.6-9.3,0
		C12.5,21.9,12.5,17.7,15.1,15.1"/>
	<polygon class="st2" points="6.9,32.7 6.9,20.8 0.5,20.8 0.5,39.1 18.7,39.1 18.7,32.7 	"/>
	<polygon class="st2" points="20.7,0.5 20.7,6.9 32.5,6.9 32.5,18.8 38.8,18.8 38.8,0.5 	"/>
	<path class="st0" d="M32.5,20.8C32,27.1,27,32.1,20.7,32.6V39c9.8-0.5,17.7-8.4,18.1-18.3H32.5z"/>
	<path class="st0" d="M18.7,7V0.5C8.9,1,1,8.9,0.5,18.8h6.4C7.4,12.5,12.4,7.4,18.7,7"/>
</g>
</svg>
