<?xml version="1.0" encoding="utf-8"?>
<!-- Generator: Adobe Illustrator 23.0.1, SVG Export Plug-In . SVG Version: 6.00 Build 0)  -->
<svg version="1.1" id="Layer_1" xmlns="http://www.w3.org/2000/svg" xmlns:xlink="http://www.w3.org/1999/xlink" x="0px" y="0px"
	 viewBox="0 0 24 24" style="enable-background:new 0 0 24 24;" xml:space="preserve">
<style type="text/css">
	.st0{fill:#D8D8D8;}
	.st1{fill-rule:evenodd;clip-rule:evenodd;fill:#FFFFFF;}
</style>
<path class="st0" d="M13.5,17.6l4-5.6l6.5,9h-8H0l8-11L13.5,17.6z M16.5,8C15.1,8,14,6.9,14,5.5S15.1,3,16.5,3S19,4.1,19,5.5
	S17.9,8,16.5,8z"/>
<path id="path-1_1_" class="st1" d="M13.5,17.6l4-5.6l6.5,9h-8H0l8-11L13.5,17.6z M16.5,8C15.1,8,14,6.9,14,5.5S15.1,3,16.5,3
	S19,4.1,19,5.5S17.9,8,16.5,8z"/>
</svg>
