<?xml version="1.0" encoding="utf-8"?>
<!-- Generator: Adobe Illustrator 23.0.1, SVG Export Plug-In . SVG Version: 6.00 Build 0)  -->
<svg version="1.1" id="Layer_1" xmlns="http://www.w3.org/2000/svg" xmlns:xlink="http://www.w3.org/1999/xlink" x="0px" y="0px"
	 viewBox="0 0 24 24" style="enable-background:new 0 0 24 24;" xml:space="preserve">
<style type="text/css">
	.st0{fill-rule:evenodd;clip-rule:evenodd;fill:#FFFFFF;}
</style>
<path id="path-1_1_" class="st0" d="M5.5,4.8c-2.6,2.4-3.7,5.9-2.9,9.3c0.1,0.4-0.1,0.7-0.5,0.8c-0.1,0-0.1,0-0.2,0
	c-0.3,0-0.6-0.2-0.6-0.5c-0.9-3.9,0.3-8,3.3-10.6C6.8,1.8,9.6,0.8,12.5,1c2.3,0.1,4.5,1,6.3,2.4l-0.1-2.7c0-0.4,0.3-0.7,0.6-0.7
	C19.7,0,20,0.3,20,0.6L20.2,5v0c0,0,0,0,0,0v0c0,0.4-0.3,0.6-0.6,0.7l-4.4,0.2c0,0,0,0,0,0c-0.4,0-0.6-0.3-0.7-0.6
	c0-0.4,0.3-0.7,0.6-0.7l2.8-0.1C14.4,1.5,9.1,1.6,5.5,4.8z M22.7,9.6c0.9,3.9-0.3,8-3.3,10.6c-2,1.8-4.6,2.8-7.3,2.8
	c-0.2,0-0.4,0-0.6,0c-2.3-0.1-4.5-1-6.3-2.4l0.2,2.6c0,0.4-0.2,0.7-0.6,0.7c0,0,0,0-0.1,0c-0.3,0-0.6-0.3-0.7-0.6L3.8,19
	c0-0.4,0.2-0.7,0.6-0.7l4.4-0.4c0.4,0,0.7,0.2,0.7,0.6c0,0.4-0.2,0.7-0.6,0.7L6,19.5c1.8,1.5,3.9,2.2,6.1,2.2c2.3,0,4.6-0.8,6.4-2.5
	c2.6-2.4,3.7-5.9,2.9-9.3c-0.1-0.4,0.1-0.7,0.5-0.8C22.2,9,22.6,9.2,22.7,9.6z"/>
</svg>
