<?xml version="1.0" encoding="utf-8"?>
<!-- Generator: Adobe Illustrator 23.0.1, SVG Export Plug-In . SVG Version: 6.00 Build 0)  -->
<svg version="1.1" id="Layer_1" xmlns="http://www.w3.org/2000/svg" xmlns:xlink="http://www.w3.org/1999/xlink" x="0px" y="0px"
	 viewBox="0 0 24 24" style="enable-background:new 0 0 24 24;" xml:space="preserve">
<style type="text/css">
	.st0{fill-rule:evenodd;clip-rule:evenodd;fill:#FFFFFF;}
</style>
<path id="path-1_1_" class="st0" d="M5,7C3.6,7,2.5,5.9,2.5,4.5S3.6,2,5,2c1.2,0,2.3,0.9,2.4,2.1h13.8c0.2,0,0.4,0.2,0.4,0.4
	s-0.2,0.4-0.4,0.4H7.4C7.2,6.1,6.2,7,5,7z M5,2.7c-1,0-1.8,0.8-1.8,1.8S4,6.3,5,6.3s1.8-0.8,1.8-1.8S5.9,2.7,5,2.7z M19,17
	c1.4,0,2.5,1.1,2.5,2.5S20.4,22,19,22c-1.2,0-2.3-0.9-2.4-2.1H2.9c-0.2,0-0.4-0.2-0.4-0.4s0.2-0.4,0.4-0.4h13.8
	C16.8,17.9,17.8,17,19,17z M19,21.3c1,0,1.8-0.8,1.8-1.8S20,17.7,19,17.7c-1,0-1.8,0.8-1.8,1.8S18.1,21.3,19,21.3z M21.1,11.2
	c0.2,0,0.4,0.2,0.4,0.3c0,0.2-0.2,0.3-0.4,0.3h-6.6c-0.2,1.2-1.2,2.1-2.5,2.1s-2.3-0.9-2.5-2.1H2.9c-0.2,0-0.4-0.2-0.4-0.3
	c0-0.2,0.2-0.3,0.4-0.3h6.7C9.7,10,10.8,9,12.1,9s2.4,1,2.5,2.2H21.1z M12.1,13.3c1,0,1.8-0.8,1.8-1.8s-0.8-1.8-1.8-1.8
	s-1.8,0.8-1.8,1.8S11.1,13.3,12.1,13.3z"/>
</svg>
