<?xml version="1.0" encoding="utf-8"?>
<!-- Generator: Adobe Illustrator 23.0.1, SVG Export Plug-In . SVG Version: 6.00 Build 0)  -->
<svg version="1.1" id="Layer_1" xmlns="http://www.w3.org/2000/svg" xmlns:xlink="http://www.w3.org/1999/xlink" x="0px" y="0px"
	 viewBox="0 0 24 24" style="enable-background:new 0 0 24 24;" xml:space="preserve">
<style type="text/css">
	.st0{fill-rule:evenodd;clip-rule:evenodd;fill:#FFFFFF;}
</style>
<path id="path-1_1_" class="st0" d="M14.1,8c0.1,0.1,0.1,0.2,0.1,0.3c0,0.1,0,0.2-0.1,0.3c-0.1,0.1-0.3,0.1-0.4,0.1h-2.9
	c-0.2,0-0.3,0-0.5-0.1c-0.2-0.2-0.2-0.5,0-0.6c0.1-0.1,0.2-0.2,0.4-0.5l0.6-0.7L12,6.1l0.4-0.5c0.1-0.1,0.2-0.2,0.3-0.3H11
	c-0.2,0-0.3,0-0.5-0.1c-0.1,0-0.2-0.1-0.2-0.3c0-0.1,0-0.2,0.1-0.3c0.1-0.1,0.2-0.1,0.4-0.1h2.5c0.2,0,0.4,0,0.5,0.1
	C14,4.7,14,4.9,14,5c0,0.1,0,0.1,0,0.2c0,0.1,0,0.1-0.1,0.2l-0.1,0.1l-0.2,0.2l-2,2.2h2.1C13.9,7.8,14,7.9,14.1,8z M18.6,10.5
	c0.1,0.1,0.1,0.2,0.1,0.2c0,0.1,0,0.2-0.1,0.2c-0.1,0.1-0.2,0.1-0.3,0.1h-2.3c-0.1,0-0.3,0-0.4-0.1c-0.1-0.1-0.2-0.3,0-0.5
	c0.1-0.1,0.2-0.2,0.4-0.4l0.5-0.6L16.8,9l0.3-0.4c0.1-0.1,0.2-0.2,0.2-0.3h-1.3c-0.1,0-0.3,0-0.4,0c-0.1,0-0.1-0.1-0.1-0.2
	c0-0.1,0-0.2,0.1-0.2c0.1-0.1,0.2-0.1,0.3-0.1h2c0.1,0,0.3,0,0.4,0.1c0.1,0.1,0.2,0.2,0.1,0.3c0,0,0,0.1,0,0.1c0,0,0,0.1-0.1,0.1
	l-0.1,0.1l-0.1,0.2l-1.6,1.8h1.7C18.4,10.4,18.5,10.5,18.6,10.5z M23.8,7.7C23.9,7.8,24,7.9,23.9,8c0,0.1,0,0.2-0.1,0.3
	c-0.1,0.1-0.3,0.1-0.4,0.1h-2.9c-0.2,0-0.3,0-0.5-0.1c-0.2-0.2-0.2-0.5,0-0.6c0.1-0.1,0.2-0.2,0.4-0.5l0.6-0.7l0.5-0.6L22,5.4
	c0.1-0.1,0.2-0.2,0.3-0.3h-1.6c-0.2,0-0.3,0-0.5-0.1c-0.1,0-0.2-0.1-0.2-0.3c0-0.1,0-0.2,0.1-0.3c0.1-0.1,0.2-0.1,0.4-0.1H23
	c0.2,0,0.4,0,0.5,0.1c0.1,0.1,0.2,0.2,0.2,0.4c0,0.1,0,0.1,0,0.2c0,0.1,0,0.1-0.1,0.2l-0.1,0.1l-0.2,0.2l-2,2.2h2.1
	C23.6,7.6,23.7,7.6,23.8,7.7z M22.1,16.1c0.1,0.1,0.2,0.4,0.1,0.6c-1.2,2.7-3.4,4.8-6.1,5.9C10.1,25,3.3,22.2,0.9,16.2
	S1.3,3.5,7.2,1C7.3,1,7.5,1,7.6,1.1C7.9,1.2,8,1.5,7.9,1.7c-1.3,2.7-1.3,5.8-0.2,8.6c2.2,5.4,8.5,8,13.9,5.8
	C21.7,16,22,16,22.1,16.1z M11.6,22.4c3.7,0,7.1-1.9,9-5.1c-1,0.3-2.1,0.4-3.2,0.4c-6.4,0-11.6-5.2-11.6-11.6c0-1.2,0.2-2.5,0.6-3.7
	C3.1,4.4,1,8,1,11.8C1,17.7,5.8,22.4,11.6,22.4z"/>
</svg>
