<?xml version="1.0" encoding="utf-8"?>
<!-- Generator: Adobe Illustrator 23.0.1, SVG Export Plug-In . SVG Version: 6.00 Build 0)  -->
<svg version="1.1" id="Layer_1" xmlns="http://www.w3.org/2000/svg" xmlns:xlink="http://www.w3.org/1999/xlink" x="0px" y="0px"
	 viewBox="0 0 24 24" style="enable-background:new 0 0 24 24;" xml:space="preserve">
<style type="text/css">
	.st0{fill:#FFFFFF;}
</style>
<title>Icons/timer</title>
<desc>Created with Sketch.</desc>
<path class="st0" d="M21.5,7.6l-1.1,1.1c1,1.6,1.6,3.5,1.6,5.4c0,5.5-4.5,10-10,10C6.5,24,2,19.5,2,14c0-5,3.7-9.2,8.5-9.9V3H10
	C9.5,3,9,2.6,9,2V1c0-0.5,0.5-1,1-1h4c0.5,0,1,0.4,1,1V2c0,0.6-0.5,1-1,1h-0.5v1.1c1.8,0.3,3.5,1,4.9,2.2l0.9-0.9
	c0.4-0.4,1-0.4,1.4,0l0.7,0.7C21.9,6.6,21.9,7.2,21.5,7.6z M20,6.1L19.1,7c0.3,0.3,0.5,0.5,0.7,0.8l0.9-0.9L20,6.1z M10,2.1h4V1h-4
	V2.1z M11.5,3v1c0.2,0,0.3,0,0.5,0c0.2,0,0.3,0,0.5,0V3H11.5z M12,23c5,0,9-4,9-9s-4-9-9-9c-5,0-9,4-9,9S7,23,12,23z M12.5,13.6h4.3
	c0.3,0,0.5,0.2,0.5,0.5s-0.2,0.5-0.5,0.5H12c-0.1,0-0.3-0.1-0.3-0.1s-0.1-0.2-0.1-0.3V8.4c0-0.3,0.2-0.5,0.5-0.5
	c0.3,0,0.5,0.2,0.5,0.5V13.6z"/>
</svg>
