<?xml version="1.0" encoding="utf-8"?>
<!-- Generator: Adobe Illustrator 23.0.1, SVG Export Plug-In . SVG Version: 6.00 Build 0)  -->
<svg version="1.1" id="Layer_1" xmlns="http://www.w3.org/2000/svg" xmlns:xlink="http://www.w3.org/1999/xlink" x="0px" y="0px"
	 viewBox="0 0 24 24" style="enable-background:new 0 0 24 24;" xml:space="preserve">
<style type="text/css">
	.st0{fill-rule:evenodd;clip-rule:evenodd;fill:#FFFFFF;}
</style>
<path id="path-1_1_" class="st0" d="M21.1,4.3L21.1,4.3l0,2h-0.9v16c0,0.9-0.8,1.7-1.7,1.7H5.5c-0.9,0-1.7-0.8-1.7-1.7v-16H3v-2
	c0-0.9,0.7-1.6,1.6-1.6h4.3V1.4C8.8,0.6,9.4,0,10.2,0h3.6c0.7,0,1.4,0.6,1.4,1.4v1.4h4.3C20.3,2.7,21.1,3.4,21.1,4.3z M9.7,1.4v1.4
	h4.5V1.4c0-0.2-0.2-0.5-0.5-0.5h-3.6C9.9,0.9,9.7,1.1,9.7,1.4z M19.3,22.3v-16H4.8v16c0,0.4,0.4,0.8,0.8,0.8h12.9
	C18.9,23.1,19.3,22.7,19.3,22.3z M20.2,5.4V4.3c0-0.4-0.3-0.7-0.7-0.7h-4.3H8.8H4.6c-0.4,0-0.7,0.3-0.7,0.7v1.1H20.2z M6.6,10
	c-0.3,0-0.5-0.2-0.5-0.5c0-0.3,0.2-0.5,0.5-0.5C6.8,9.1,7,9.3,7,9.5C7,9.8,6.8,10,6.6,10z M6.6,12.7c-0.3,0-0.5-0.2-0.5-0.5
	c0-0.3,0.2-0.5,0.5-0.5C6.8,11.8,7,12,7,12.2C7,12.5,6.8,12.7,6.6,12.7z M7.9,8.6c-0.3,0-0.5-0.2-0.5-0.5c0-0.3,0.2-0.5,0.5-0.5
	c0.3,0,0.5,0.2,0.5,0.5C8.4,8.4,8.2,8.6,7.9,8.6z M10.6,8.6c-0.3,0-0.5-0.2-0.5-0.5c0-0.3,0.2-0.5,0.5-0.5s0.5,0.2,0.5,0.5
	C11.1,8.4,10.9,8.6,10.6,8.6z M7.9,11.3c-0.3,0-0.5-0.2-0.5-0.5c0-0.3,0.2-0.5,0.5-0.5c0.3,0,0.5,0.2,0.5,0.5
	C8.4,11.1,8.2,11.3,7.9,11.3z M10.6,11.3c-0.3,0-0.5-0.2-0.5-0.5c0-0.3,0.2-0.5,0.5-0.5s0.5,0.2,0.5,0.5
	C11.1,11.1,10.9,11.3,10.6,11.3z M9.3,10C9,10,8.8,9.8,8.8,9.5c0-0.3,0.2-0.5,0.5-0.5c0.3,0,0.5,0.2,0.5,0.5C9.7,9.8,9.5,10,9.3,10z
	 M12,10c-0.3,0-0.5-0.2-0.5-0.5c0-0.3,0.2-0.5,0.5-0.5c0.3,0,0.5,0.2,0.5,0.5C12.5,9.8,12.3,10,12,10z M9.3,12.7
	c-0.3,0-0.5-0.2-0.5-0.5c0-0.3,0.2-0.5,0.5-0.5c0.3,0,0.5,0.2,0.5,0.5C9.7,12.5,9.5,12.7,9.3,12.7z M12,12.7c-0.3,0-0.5-0.2-0.5-0.5
	c0-0.3,0.2-0.5,0.5-0.5c0.3,0,0.5,0.2,0.5,0.5C12.5,12.5,12.3,12.7,12,12.7z M13.4,8.6c-0.3,0-0.5-0.2-0.5-0.5
	c0-0.3,0.2-0.5,0.5-0.5s0.5,0.2,0.5,0.5C13.8,8.4,13.6,8.6,13.4,8.6z M16.1,8.6c-0.3,0-0.5-0.2-0.5-0.5c0-0.3,0.2-0.5,0.5-0.5
	c0.3,0,0.5,0.2,0.5,0.5C16.5,8.4,16.3,8.6,16.1,8.6z M13.4,11.3c-0.3,0-0.5-0.2-0.5-0.5c0-0.3,0.2-0.5,0.5-0.5s0.5,0.2,0.5,0.5
	C13.8,11.1,13.6,11.3,13.4,11.3z M16.1,11.3c-0.3,0-0.5-0.2-0.5-0.5c0-0.3,0.2-0.5,0.5-0.5c0.3,0,0.5,0.2,0.5,0.5
	C16.5,11.1,16.3,11.3,16.1,11.3z M14.7,10c-0.3,0-0.5-0.2-0.5-0.5c0-0.3,0.2-0.5,0.5-0.5c0.3,0,0.5,0.2,0.5,0.5
	C15.2,9.8,15,10,14.7,10z M17.4,10C17.2,10,17,9.8,17,9.5c0-0.3,0.2-0.5,0.5-0.5c0.3,0,0.5,0.2,0.5,0.5C17.9,9.8,17.7,10,17.4,10z
	 M14.7,12.7c-0.3,0-0.5-0.2-0.5-0.5c0-0.3,0.2-0.5,0.5-0.5c0.3,0,0.5,0.2,0.5,0.5C15.2,12.5,15,12.7,14.7,12.7z M17.4,12.7
	c-0.3,0-0.5-0.2-0.5-0.5c0-0.3,0.2-0.5,0.5-0.5c0.3,0,0.5,0.2,0.5,0.5C17.9,12.5,17.7,12.7,17.4,12.7z M6.6,15.4
	c-0.3,0-0.5-0.2-0.5-0.5c0-0.3,0.2-0.5,0.5-0.5c0.3,0,0.5,0.2,0.5,0.5C7,15.2,6.8,15.4,6.6,15.4z M6.6,18.1c-0.3,0-0.5-0.2-0.5-0.5
	s0.2-0.5,0.5-0.5c0.3,0,0.5,0.2,0.5,0.5S6.8,18.1,6.6,18.1z M7.9,14c-0.3,0-0.5-0.2-0.5-0.5s0.2-0.5,0.5-0.5c0.3,0,0.5,0.2,0.5,0.5
	S8.2,14,7.9,14z M10.6,14c-0.3,0-0.5-0.2-0.5-0.5s0.2-0.5,0.5-0.5s0.5,0.2,0.5,0.5S10.9,14,10.6,14z M7.9,16.8
	c-0.3,0-0.5-0.2-0.5-0.5c0-0.3,0.2-0.5,0.5-0.5c0.3,0,0.5,0.2,0.5,0.5C8.4,16.6,8.2,16.8,7.9,16.8z M10.6,16.8
	c-0.3,0-0.5-0.2-0.5-0.5c0-0.3,0.2-0.5,0.5-0.5s0.5,0.2,0.5,0.5C11.1,16.6,10.9,16.8,10.6,16.8z M9.3,15.4c-0.3,0-0.5-0.2-0.5-0.5
	c0-0.3,0.2-0.5,0.5-0.5c0.3,0,0.5,0.2,0.5,0.5C9.7,15.2,9.5,15.4,9.3,15.4z M12,15.4c-0.3,0-0.5-0.2-0.5-0.5c0-0.3,0.2-0.5,0.5-0.5
	c0.3,0,0.5,0.2,0.5,0.5C12.5,15.2,12.3,15.4,12,15.4z M9.3,18.1c-0.3,0-0.5-0.2-0.5-0.5s0.2-0.5,0.5-0.5c0.3,0,0.5,0.2,0.5,0.5
	S9.5,18.1,9.3,18.1z M12,18.1c-0.3,0-0.5-0.2-0.5-0.5s0.2-0.5,0.5-0.5c0.3,0,0.5,0.2,0.5,0.5S12.3,18.1,12,18.1z M13.4,14
	c-0.3,0-0.5-0.2-0.5-0.5s0.2-0.5,0.5-0.5s0.5,0.2,0.5,0.5S13.6,14,13.4,14z M16.1,14c-0.3,0-0.5-0.2-0.5-0.5s0.2-0.5,0.5-0.5
	c0.3,0,0.5,0.2,0.5,0.5S16.3,14,16.1,14z M13.4,16.8c-0.3,0-0.5-0.2-0.5-0.5c0-0.3,0.2-0.5,0.5-0.5s0.5,0.2,0.5,0.5
	C13.8,16.6,13.6,16.8,13.4,16.8z M16.1,16.8c-0.3,0-0.5-0.2-0.5-0.5c0-0.3,0.2-0.5,0.5-0.5c0.3,0,0.5,0.2,0.5,0.5
	C16.5,16.6,16.3,16.8,16.1,16.8z M14.7,15.4c-0.3,0-0.5-0.2-0.5-0.5c0-0.3,0.2-0.5,0.5-0.5c0.3,0,0.5,0.2,0.5,0.5
	C15.2,15.2,15,15.4,14.7,15.4z M17.4,15.4c-0.3,0-0.5-0.2-0.5-0.5c0-0.3,0.2-0.5,0.5-0.5c0.3,0,0.5,0.2,0.5,0.5
	C17.9,15.2,17.7,15.4,17.4,15.4z M14.7,18.1c-0.3,0-0.5-0.2-0.5-0.5s0.2-0.5,0.5-0.5c0.3,0,0.5,0.2,0.5,0.5S15,18.1,14.7,18.1z
	 M17.4,18.1c-0.3,0-0.5-0.2-0.5-0.5s0.2-0.5,0.5-0.5c0.3,0,0.5,0.2,0.5,0.5S17.7,18.1,17.4,18.1z M6.6,20.8c-0.3,0-0.5-0.2-0.5-0.5
	c0-0.3,0.2-0.5,0.5-0.5c0.3,0,0.5,0.2,0.5,0.5C7,20.6,6.8,20.8,6.6,20.8z M7.9,19.5c-0.3,0-0.5-0.2-0.5-0.5s0.2-0.5,0.5-0.5
	c0.3,0,0.5,0.2,0.5,0.5S8.2,19.5,7.9,19.5z M10.6,19.5c-0.3,0-0.5-0.2-0.5-0.5s0.2-0.5,0.5-0.5s0.5,0.2,0.5,0.5S10.9,19.5,10.6,19.5
	z M7.9,22.2c-0.3,0-0.5-0.2-0.5-0.5s0.2-0.5,0.5-0.5c0.3,0,0.5,0.2,0.5,0.5S8.2,22.2,7.9,22.2z M10.6,22.2c-0.3,0-0.5-0.2-0.5-0.5
	s0.2-0.5,0.5-0.5s0.5,0.2,0.5,0.5S10.9,22.2,10.6,22.2z M9.3,20.8c-0.3,0-0.5-0.2-0.5-0.5c0-0.3,0.2-0.5,0.5-0.5
	c0.3,0,0.5,0.2,0.5,0.5C9.7,20.6,9.5,20.8,9.3,20.8z M12,20.8c-0.3,0-0.5-0.2-0.5-0.5c0-0.3,0.2-0.5,0.5-0.5c0.3,0,0.5,0.2,0.5,0.5
	C12.5,20.6,12.3,20.8,12,20.8z M13.4,19.5c-0.3,0-0.5-0.2-0.5-0.5s0.2-0.5,0.5-0.5s0.5,0.2,0.5,0.5S13.6,19.5,13.4,19.5z M16.1,19.5
	c-0.3,0-0.5-0.2-0.5-0.5s0.2-0.5,0.5-0.5c0.3,0,0.5,0.2,0.5,0.5S16.3,19.5,16.1,19.5z M13.4,22.2c-0.3,0-0.5-0.2-0.5-0.5
	s0.2-0.5,0.5-0.5s0.5,0.2,0.5,0.5S13.6,22.2,13.4,22.2z M16.1,22.2c-0.3,0-0.5-0.2-0.5-0.5s0.2-0.5,0.5-0.5c0.3,0,0.5,0.2,0.5,0.5
	S16.3,22.2,16.1,22.2z M14.7,20.8c-0.3,0-0.5-0.2-0.5-0.5c0-0.3,0.2-0.5,0.5-0.5c0.3,0,0.5,0.2,0.5,0.5C15.2,20.6,15,20.8,14.7,20.8
	z M17.4,20.8c-0.3,0-0.5-0.2-0.5-0.5c0-0.3,0.2-0.5,0.5-0.5c0.3,0,0.5,0.2,0.5,0.5C17.9,20.6,17.7,20.8,17.4,20.8z"/>
</svg>
