<?xml version="1.0" encoding="utf-8"?>
<!-- Generator: Adobe Illustrator 23.0.1, SVG Export Plug-In . SVG Version: 6.00 Build 0)  -->
<svg version="1.1" id="Layer_1" xmlns="http://www.w3.org/2000/svg" xmlns:xlink="http://www.w3.org/1999/xlink" x="0px" y="0px"
	 viewBox="0 0 24 24" style="enable-background:new 0 0 24 24;" xml:space="preserve">
<style type="text/css">
	.st0{fill-rule:evenodd;clip-rule:evenodd;fill:#FFFFFF;}
</style>
<path id="path-1_1_" class="st0" d="M11.5,15.8H5c-1.1,0-2-0.9-2-2v-7c0-1.1,0.9-2,2-2h14c1.1,0,2,0.9,2,2v7c0,1.1-0.9,2-2,2h-6.5
	v2.5H17v1H7v-1h4.5V15.8z M5,5.8c-0.6,0-1,0.4-1,1v7c0,0.6,0.4,1,1,1h14c0.6,0,1-0.4,1-1v-7c0-0.6-0.4-1-1-1H5z"/>
</svg>
