<?xml version="1.0" encoding="utf-8"?>
<!-- Generator: Adobe Illustrator 23.0.1, SVG Export Plug-In . SVG Version: 6.00 Build 0)  -->
<svg version="1.1" id="Layer_1" xmlns="http://www.w3.org/2000/svg" xmlns:xlink="http://www.w3.org/1999/xlink" x="0px" y="0px"
	 viewBox="0 0 24 24" style="enable-background:new 0 0 24 24;" xml:space="preserve">
<style type="text/css">
	.st0{fill-rule:evenodd;clip-rule:evenodd;fill:#FFFFFF;}
</style>
<path id="path-1_1_" class="st0" d="M23.8,11.5c0.2,0.3,0.2,0.7,0,0.9c-0.2,0.3-5.3,7.3-11.8,7.3s-11.6-7-11.8-7.3
	c-0.2-0.3-0.2-0.7,0-0.9C0.4,11.2,5.5,4.3,12,4.3S23.6,11.2,23.8,11.5z M12,18.1c4.8,0,9-4.6,10.2-6.1C21,10.5,16.8,5.9,12,5.9
	c-4.8,0-9,4.6-10.2,6.1C3,13.5,7.2,18.1,12,18.1z M12,7.4c2.6,0,4.6,2.1,4.6,4.6s-2.1,4.6-4.6,4.6S7.3,14.6,7.3,12S9.4,7.4,12,7.4z
	 M12,15.1c1.7,0,3.1-1.4,3.1-3.1S13.7,8.9,12,8.9S8.9,10.3,8.9,12S10.3,15.1,12,15.1z"/>
</svg>
