<?xml version="1.0" encoding="utf-8"?>
<!-- Generator: Adobe Illustrator 23.0.1, SVG Export Plug-In . SVG Version: 6.00 Build 0)  -->
<svg version="1.1" id="Layer_1" xmlns="http://www.w3.org/2000/svg" xmlns:xlink="http://www.w3.org/1999/xlink" x="0px" y="0px"
	 viewBox="0 0 24 24" style="enable-background:new 0 0 24 24;" xml:space="preserve">
<style type="text/css">
	.st0{fill-rule:evenodd;clip-rule:evenodd;fill:#FFFFFF;}
</style>
<path id="path-1_1_" class="st0" d="M24,8.5c0,0,0,0.1,0,0.1c0,0.1,0,0.1-0.1,0.2l-1.7,1.8c0,0-0.1,0.1-0.2,0.1
	c-0.1,0-0.1,0-0.2-0.1c-2.6-2.6-6.1-4.1-9.8-4.1c-3.7,0-7.2,1.5-9.8,4.1c0,0-0.1,0.1-0.2,0.1c-0.1,0-0.1,0-0.2-0.1L0.1,8.8
	C0,8.7,0,8.7,0,8.6c0-0.1,0-0.1,0.1-0.2c3.2-3.2,7.4-5,11.9-5C16.5,3.5,20.7,5.2,24,8.5C23.9,8.4,23.9,8.4,24,8.5z M12,8.1
	c3.3,0,6.3,1.3,8.7,3.6c0,0,0.1,0.1,0.1,0.2s0,0.1-0.1,0.2l-1.7,1.7c0,0-0.1,0.1-0.2,0.1c-0.1,0-0.1,0-0.2-0.1
	c-1.8-1.8-4.1-2.7-6.5-2.7c-2.5,0-4.8,1-6.5,2.7c0,0-0.1,0.1-0.2,0.1s-0.1,0-0.2-0.1l-1.7-1.7c-0.1-0.1-0.1-0.3,0-0.4
	C5.7,9.4,8.7,8.1,12,8.1z M12,12.8c2,0,3.9,0.8,5.4,2.2c0.1,0.1,0.1,0.3,0,0.4l-1.7,1.7c0,0-0.1,0.1-0.2,0.1c-0.1,0-0.1,0-0.2-0.1
	c-0.9-0.9-2-1.4-3.3-1.4s-2.4,0.5-3.3,1.4c0,0-0.1,0.1-0.2,0.1c-0.1,0-0.1,0-0.2-0.1l-1.7-1.7c0,0-0.1-0.1-0.1-0.2
	c0-0.1,0-0.1,0.1-0.2C8.1,13.5,10,12.8,12,12.8z M12,17.7c0.7,0,1.4,0.3,1.9,0.8c0.1,0.1,0.1,0.3,0,0.4l-1.7,1.7
	c0,0-0.1,0.1-0.2,0.1s-0.1,0-0.2-0.1l-1.7-1.7c-0.1-0.1-0.1-0.3,0-0.4C10.6,17.9,11.3,17.7,12,17.7z"/>
</svg>
